<svg xmlns="http://www.w3.org/2000/svg" width="51.005" height="63.137" viewBox="0 0 51.005 63.137">
  <g id="Group_712" data-name="Group 712" transform="translate(-1234.791 -360.759)">
    <g id="Group_483" data-name="Group 483" transform="translate(1259.724 400.584)">
      <path id="Path_146" data-name="Path 146" d="M1807.7,531.936a8.99,8.99,0,1,1,8.288-5.494,1.208,1.208,0,1,1-2.226-.941,6.568,6.568,0,1,0-4.33,3.788,1.208,1.208,0,1,1,.635,2.331A9,9,0,0,1,1807.7,531.936Z" transform="translate(-1798.702 -513.945)" fill="#666"/>
    </g>
    <g id="Group_484" data-name="Group 484" transform="translate(1254.401 395.262)">
      <path id="Path_147" data-name="Path 147" d="M1799.458,529.018a14.317,14.317,0,1,1,14.317-14.317A14.333,14.333,0,0,1,1799.458,529.018Zm0-26.218a11.9,11.9,0,1,0,11.9,11.9A11.914,11.914,0,0,0,1799.458,502.8Z" transform="translate(-1785.141 -500.384)" fill="#666"/>
    </g>
    <g id="Group_488" data-name="Group 488" transform="translate(1236.745 360.759)">
      <path id="Path_151" data-name="Path 151" d="M1741.357,450.891a1.209,1.209,0,0,1-1.063-1.78,14.594,14.594,0,0,1,9.065-7.174,217.109,217.109,0,0,1,36.944-6.488,209.709,209.709,0,0,0-30.579-19.259,11.859,11.859,0,0,0-9.373-.626,1.209,1.209,0,0,1-.811-2.277,14.285,14.285,0,0,1,11.29.754,212.023,212.023,0,0,1,31.53,19.936,2.13,2.13,0,0,1-1.115,3.816,214.649,214.649,0,0,0-37.264,6.479,12.169,12.169,0,0,0-7.559,5.981A1.208,1.208,0,0,1,1741.357,450.891Z" transform="translate(-1740.149 -412.467)" fill="#666"/>
    </g>
    <g id="Group_497" data-name="Group 497" transform="translate(1240.541 406.543)">
      <path id="Path_160" data-name="Path 160" d="M1751.785,529.129a1.964,1.964,0,1,0,1.964,1.964A1.964,1.964,0,0,0,1751.785,529.129Z" transform="translate(-1749.822 -529.129)" fill="#666"/>
    </g>
    <g id="Group_498" data-name="Group 498" transform="translate(1234.791 394.205)">
      <path id="Path_161" data-name="Path 161" d="M1752.842,520.7h-14.578a3.094,3.094,0,0,1-1.148-5.967l-.652-2.38a19.41,19.41,0,0,1-.69-5.13,2.556,2.556,0,0,1,2.553-2.553h2.291a18.324,18.324,0,0,0,11.716-4.234l.4-.332h-1.954a24.224,24.224,0,0,0-5.244.576,1.208,1.208,0,0,1-.525-2.359,26.609,26.609,0,0,1,5.769-.634h3.126a1.993,1.993,0,0,1,1.275,3.526l-1.3,1.082a20.738,20.738,0,0,1-13.261,4.793h-2.291a.137.137,0,0,0-.136.136,17.011,17.011,0,0,0,.6,4.491l.739,2.7a2.072,2.072,0,0,1-1.448,2.543.677.677,0,0,0,.179,1.33h14.578a1.208,1.208,0,0,1,0,2.417Z" transform="translate(-1735.17 -497.69)" fill="#666"/>
    </g>
  </g>
</svg>
