<svg id="Group_480" data-name="Group 480" xmlns="http://www.w3.org/2000/svg" width="71.103" height="71.113" viewBox="0 0 71.103 71.113">
  <g id="Group_465" data-name="Group 465" transform="translate(29.432 55.259)">
    <g id="Group_463" data-name="Group 463" transform="translate(3.652)">
      <path id="Path_133" data-name="Path 133" d="M2986.565,544.281a1.964,1.964,0,1,0,1.964,1.964A1.964,1.964,0,0,0,2986.565,544.281Z" transform="translate(-2984.601 -544.281)" fill="#666"/>
    </g>
    <g id="Group_464" data-name="Group 464" transform="translate(0 5.861)">
      <circle id="Ellipse_156" data-name="Ellipse 156" cx="1.964" cy="1.964" r="1.964" fill="#666"/>
    </g>
  </g>
  <g id="Group_468" data-name="Group 468" transform="translate(12.145 50.885)">
    <g id="Group_466" data-name="Group 466" transform="translate(6.727)">
      <path id="Path_134" data-name="Path 134" d="M2951.74,533.711a1.964,1.964,0,1,0,0,2.778A1.964,1.964,0,0,0,2951.74,533.711Z" transform="translate(-2948.387 -533.136)" fill="#666"/>
    </g>
    <g id="Group_467" data-name="Group 467" transform="translate(0 1.562)">
      <path id="Path_135" data-name="Path 135" d="M2934.6,537.692a1.964,1.964,0,1,0,0,2.777A1.964,1.964,0,0,0,2934.6,537.692Z" transform="translate(-2931.247 -537.117)" fill="#666"/>
    </g>
  </g>
  <g id="Group_471" data-name="Group 471" transform="translate(6.054 34.091)">
    <g id="Group_469" data-name="Group 469" transform="translate(5.861 3.652)">
      <path id="Path_136" data-name="Path 136" d="M2934.59,501.613a1.964,1.964,0,1,0-1.965,1.964A1.964,1.964,0,0,0,2934.59,501.613Z" transform="translate(-2930.661 -499.649)" fill="#666"/>
    </g>
    <g id="Group_470" data-name="Group 470">
      <circle id="Ellipse_157" data-name="Ellipse 157" cx="1.964" cy="1.964" r="1.964" fill="#666"/>
    </g>
  </g>
  <g id="Group_476" data-name="Group 476" transform="translate(14.727 16.805)">
    <g id="Group_472" data-name="Group 472" transform="translate(33.06 38.225)">
      <path id="Path_137" data-name="Path 137" d="M3022.644,544.272a1.964,1.964,0,1,0,2.778,0A1.964,1.964,0,0,0,3022.644,544.272Z" transform="translate(-3022.069 -543.697)" fill="#666"/>
    </g>
    <g id="Group_473" data-name="Group 473" transform="translate(31.498 31.498)">
      <path id="Path_138" data-name="Path 138" d="M3021.441,529.909a1.964,1.964,0,1,0-2.777,0A1.964,1.964,0,0,0,3021.441,529.909Z" transform="translate(-3018.089 -526.556)" fill="#666"/>
    </g>
    <g id="Group_474" data-name="Group 474" transform="translate(1.562 6.727)">
      <path id="Path_139" data-name="Path 139" d="M2945.16,466.788a1.964,1.964,0,1,0-2.777,0A1.964,1.964,0,0,0,2945.16,466.788Z" transform="translate(-2941.807 -463.435)" fill="#666"/>
    </g>
    <g id="Group_475" data-name="Group 475">
      <path id="Path_140" data-name="Path 140" d="M2941.18,449.647a1.965,1.965,0,1,0-2.778,0A1.964,1.964,0,0,0,2941.18,449.647Z" transform="translate(-2937.826 -446.294)" fill="#666"/>
    </g>
  </g>
  <g id="Group_477" data-name="Group 477" transform="translate(19.478 24.137)">
    <path id="Path_141" data-name="Path 141" d="M2963.675,492.466a13.745,13.745,0,0,1-8.914-24.206,1.209,1.209,0,1,1,1.568,1.839,11.327,11.327,0,1,0,7.346-2.7,1.209,1.209,0,1,1,0-2.417,13.744,13.744,0,0,1,0,27.488Z" transform="translate(-2949.931 -464.978)" fill="#666"/>
  </g>
  <g id="Group_478" data-name="Group 478" transform="translate(27.525 32.186)">
    <path id="Path_142" data-name="Path 142" d="M2976.134,496.878a5.7,5.7,0,1,1,5.7-5.7,1.208,1.208,0,1,1-2.417,0,3.28,3.28,0,1,0-3.279,3.279,1.208,1.208,0,1,1,0,2.417Z" transform="translate(-2970.438 -485.486)" fill="#666"/>
  </g>
  <g id="Group_479" data-name="Group 479" transform="translate(0 0)">
    <path id="Path_143" data-name="Path 143" d="M2933.521,474.585a33.239,33.239,0,0,1-14-63.378,1.209,1.209,0,0,1,1.02,2.191,30.817,30.817,0,1,0,42.737,35.949,1.212,1.212,0,0,1,1.317-.886,3.834,3.834,0,0,0,2.836-.794,3.556,3.556,0,0,0,1.344-2.463,35.583,35.583,0,0,0-.6-11.378,13.287,13.287,0,0,0-3.606-6.6L2947.65,410.3a13.3,13.3,0,0,0-6.6-3.607,35.578,35.578,0,0,0-11.284-.606,3.692,3.692,0,0,0-3.16,2.485,3.641,3.641,0,0,0,.88,3.866l9.725,9.725a7.6,7.6,0,0,0,2.732,1.746,18.592,18.592,0,0,1,11.022,11.022,7.589,7.589,0,0,0,1.746,2.733l8.259,8.259a1.208,1.208,0,0,1-1.709,1.709L2951,439.375a10.019,10.019,0,0,1-2.306-3.609,16.174,16.174,0,0,0-9.585-9.586,10.024,10.024,0,0,1-3.609-2.306l-9.725-9.725a6.151,6.151,0,0,1,3.734-10.464,37.98,37.98,0,0,1,12.05.647,15.7,15.7,0,0,1,7.8,4.26l16.925,16.924a15.706,15.706,0,0,1,4.26,7.8,38,38,0,0,1,.636,12.15,6,6,0,0,1-2.247,4.1,6.278,6.278,0,0,1-3.581,1.337A33.263,33.263,0,0,1,2933.521,474.585Z" transform="translate(-2900.299 -403.472)" fill="#666"/>
  </g>
</svg>
