<svg id="Group_548" data-name="Group 548" xmlns="http://www.w3.org/2000/svg" width="73.924" height="73.923" viewBox="0 0 73.924 73.923">
  <g id="Group_544" data-name="Group 544" transform="translate(30.623 0)">
    <path id="Path_198" data-name="Path 198" d="M2419.358,152.186a2.2,2.2,0,0,1-.785-.146,2.143,2.143,0,0,1-1.394-1.9,19.651,19.651,0,0,0-18.472-18.472,2.173,2.173,0,0,1-1.4-3.707l8.714-8.714a1.208,1.208,0,0,1,1.709,1.709l-8.336,8.337a22.068,22.068,0,0,1,20.165,20.166l11.077-11.077-21.02-21.02a1.208,1.208,0,0,1,0-1.709l6.413-6.413a1.208,1.208,0,0,1,1.709,0l21.874,21.874a1.208,1.208,0,0,1,0,1.709l-3.422,3.423a1.209,1.209,0,0,1-1.709,0l-19.312-19.311a1.208,1.208,0,0,1,1.709-1.709l18.457,18.457,1.714-1.714L2416.879,111.8l-4.7,4.7,21.02,21.02a1.209,1.209,0,0,1,0,1.709l-12.309,12.309A2.151,2.151,0,0,1,2419.358,152.186Z" transform="translate(-2396.662 -108.886)" fill="#666"/>
  </g>
  <g id="Group_545" data-name="Group 545" transform="translate(48.877 21.119)">
    <path id="Path_199" data-name="Path 199" d="M2446.527,163.276a1.964,1.964,0,1,0,0,2.777A1.963,1.963,0,0,0,2446.527,163.276Z" transform="translate(-2443.175 -162.701)" fill="#666"/>
  </g>
  <g id="Group_546" data-name="Group 546" transform="translate(0 27.921)">
    <path id="Path_200" data-name="Path 200" d="M2336.463,226.035a2.7,2.7,0,0,1-1.925-.8l-1.049-1.049a12.848,12.848,0,0,1-13.014-13.014l-1.049-1.049a2.723,2.723,0,0,1,0-3.851l8.925-8.925a2.719,2.719,0,0,1,3.523-.277,6.691,6.691,0,0,0,8.5-.585l16.988-16.124a1.208,1.208,0,0,1,1.664,1.753l-16.988,16.124a9.11,9.11,0,0,1-11.58.794.311.311,0,0,0-.4.024l-8.925,8.925a.306.306,0,0,0,0,.432l1.42,1.42a1.209,1.209,0,0,1,.353.921,10.432,10.432,0,0,0,11,11,1.2,1.2,0,0,1,.921.352l1.42,1.42a.306.306,0,0,0,.432,0l8.925-8.925a.311.311,0,0,0,.024-.4,9.111,9.111,0,0,1,.794-11.579l19.837-20.9a1.208,1.208,0,0,1,1.753,1.664l-19.837,20.9a6.691,6.691,0,0,0-.585,8.5,2.718,2.718,0,0,1-.277,3.523l-8.925,8.925A2.7,2.7,0,0,1,2336.463,226.035Z" transform="translate(-2318.629 -180.032)" fill="#666"/>
  </g>
  <g id="Group_547" data-name="Group 547" transform="translate(6.696 51.225)">
    <path id="Path_201" data-name="Path 201" d="M2343.692,255.417a8,8,0,1,1,7.315-4.754,1.208,1.208,0,0,1-2.208-.982,5.586,5.586,0,1,0-5.106,3.318,1.209,1.209,0,0,1,0,2.417Z" transform="translate(-2335.691 -239.414)" fill="#666"/>
  </g>
</svg>
