<svg id="Group_543" data-name="Group 543" xmlns="http://www.w3.org/2000/svg" width="74.156" height="55.136" viewBox="0 0 74.156 55.136">
  <g id="Group_537" data-name="Group 537" transform="translate(14.729 37.424)">
    <path id="Path_192" data-name="Path 192" d="M2390.674,536.643H2358.3a1.208,1.208,0,1,1,0-2.417h32.372a6.006,6.006,0,0,0,4.5-2.032l3.554-4.028a2.883,2.883,0,0,0,.721-1.908v-6.12a1.208,1.208,0,0,1,2.417,0v6.12a5.3,5.3,0,0,1-1.326,3.507l-3.554,4.028A8.425,8.425,0,0,1,2390.674,536.643Z" transform="translate(-2357.093 -518.93)" fill="#666"/>
  </g>
  <g id="Group_538" data-name="Group 538" transform="translate(50.356 8.076)">
    <path id="Path_193" data-name="Path 193" d="M2449.084,481.847h0a1.208,1.208,0,0,1-1.208-1.208V446.6a2.428,2.428,0,0,1,1.58-2.285,2.4,2.4,0,0,1,2.666.649l3.575,4.053a5.3,5.3,0,0,1,1.326,3.507v16.747h12.236v-5.19h-9.214a1.208,1.208,0,1,1,0-2.417h10.423a1.208,1.208,0,0,1,1.208,1.208v7.607a1.208,1.208,0,0,1-1.208,1.208h-14.653a1.208,1.208,0,0,1-1.208-1.208V452.519a2.886,2.886,0,0,0-.721-1.908l-3.554-4.028.888-.82-.9.8.013,0h0a.066.066,0,0,0-.039.018v34.055A1.209,1.209,0,0,1,2449.084,481.847Z" transform="translate(-2447.876 -444.149)" fill="#666"/>
  </g>
  <g id="Group_539" data-name="Group 539" transform="translate(0 6.061)">
    <path id="Path_194" data-name="Path 194" d="M2330.026,486.074a2.394,2.394,0,0,1-1.794-.81l-.035-.04-7.311-8.286a5.3,5.3,0,0,1-1.326-3.507V453.673a5.3,5.3,0,0,1,1.326-3.507l7.324-8.3a8.423,8.423,0,0,1,6.314-2.85H2366.9a1.209,1.209,0,0,1,0,2.417h-32.371a6.006,6.006,0,0,0-4.5,2.032l-7.325,8.3a2.885,2.885,0,0,0-.721,1.908V473.43a2.882,2.882,0,0,0,.722,1.908l7.324,8.3-.888.82.9-.8-.014,0a.123.123,0,0,0,.039-.018V450.73a1.208,1.208,0,0,1,1.208-1.209h0a1.209,1.209,0,0,1,1.208,1.209v32.9a2.456,2.456,0,0,1-2.451,2.447Z" transform="translate(-2319.56 -439.014)" fill="#666"/>
  </g>
  <g id="Group_540" data-name="Group 540" transform="translate(22.8 17.918)">
    <path id="Path_195" data-name="Path 195" d="M2380.206,495.694a1.209,1.209,0,0,1-1.164-1.532l3.344-12.052h-3.52a1.208,1.208,0,0,1-1.165-1.531l2.9-10.467a1.208,1.208,0,0,1,2.329.646l-2.479,8.936h3.52a1.209,1.209,0,0,1,1.164,1.532l-2.177,7.851,8.8-11.081h-2.795a1.209,1.209,0,0,1-1.164-1.532l1.762-6.352a1.208,1.208,0,0,1,2.329.646l-1.337,4.82h3.709a1.208,1.208,0,0,1,.946,1.96l-14.063,17.7A1.208,1.208,0,0,1,2380.206,495.694Z" transform="translate(-2377.657 -469.226)" fill="#666"/>
  </g>
  <g id="Group_541" data-name="Group 541" transform="translate(28.379 0)">
    <path id="Path_196" data-name="Path 196" d="M2397.664,432.047a1.208,1.208,0,0,1-1.208-1.208v-4.853h-2.166v.623a1.208,1.208,0,0,1-2.417,0v-1.832a1.209,1.209,0,0,1,1.208-1.209h4.583a1.208,1.208,0,0,1,1.208,1.209v6.061A1.208,1.208,0,0,1,2397.664,432.047Z" transform="translate(-2391.873 -423.569)" fill="#666"/>
  </g>
  <g id="Group_542" data-name="Group 542" transform="translate(38.469 0)">
    <path id="Path_197" data-name="Path 197" d="M2423.375,432.047a1.209,1.209,0,0,1-1.208-1.208v-4.853H2420v.623a1.208,1.208,0,1,1-2.417,0v-1.832a1.209,1.209,0,0,1,1.208-1.209h4.583a1.209,1.209,0,0,1,1.208,1.209v6.061A1.209,1.209,0,0,1,2423.375,432.047Z" transform="translate(-2417.584 -423.569)" fill="#666"/>
  </g>
</svg>
