<svg id="Group_527" data-name="Group 527" xmlns="http://www.w3.org/2000/svg" width="79.534" height="66.08" viewBox="0 0 79.534 66.08">
  <g id="Group_513" data-name="Group 513" transform="translate(13.625 21.449)">
    <path id="Path_173" data-name="Path 173" d="M647.393,511.91H629.931a6.849,6.849,0,0,1-6.008-3.558l-1.653-3.015a4.433,4.433,0,0,0-3.889-2.3H607.72c-4.321,0-6.9-3.224-6.9-8.624V471.672a1.209,1.209,0,1,1,2.417,0V494.41c0,2.832.778,6.207,4.483,6.207h10.661a6.85,6.85,0,0,1,6.008,3.558l1.652,3.015a4.433,4.433,0,0,0,3.889,2.3h17.462a1.208,1.208,0,1,1,0,2.417Z" transform="translate(-600.82 -470.463)" fill="#666"/>
  </g>
  <g id="Group_514" data-name="Group 514" transform="translate(13.625 6.334)">
    <path id="Path_174" data-name="Path 174" d="M654.528,460.3a1.209,1.209,0,0,1-1.208-1.208V436.855a2.494,2.494,0,0,0-2.491-2.491h-45.1a2.494,2.494,0,0,0-2.491,2.491v3.715a2.494,2.494,0,0,0,2.491,2.491H650.3a1.208,1.208,0,0,1,0,2.417h-44.57a4.913,4.913,0,0,1-4.908-4.908v-3.715a4.913,4.913,0,0,1,4.908-4.908h45.1a4.913,4.913,0,0,1,4.908,4.908v22.238A1.208,1.208,0,0,1,654.528,460.3Z" transform="translate(-600.82 -431.947)" fill="#666"/>
  </g>
  <g id="Group_515" data-name="Group 515" transform="translate(63.218 43.396)">
    <path id="Path_175" data-name="Path 175" d="M731,549.072a3.815,3.815,0,0,1-3.811-3.81v-9.35a1.209,1.209,0,0,1,2.417,0v9.35a1.393,1.393,0,1,0,2.787,0V527.6a1.208,1.208,0,0,1,2.417,0v17.666A3.814,3.814,0,0,1,731,549.072Z" transform="translate(-727.192 -526.387)" fill="#666"/>
  </g>
  <g id="Group_516" data-name="Group 516" transform="translate(20.617)">
    <path id="Path_176" data-name="Path 176" d="M628.4,424.558a1.208,1.208,0,0,1-1.209-1.208v-4.022a1.1,1.1,0,0,0-1.1-1.1h-3.931a1.1,1.1,0,0,0-1.1,1.1,1.208,1.208,0,0,1-2.417,0,3.524,3.524,0,0,1,3.519-3.52h3.931a3.524,3.524,0,0,1,3.519,3.52v4.022A1.208,1.208,0,0,1,628.4,424.558Z" transform="translate(-618.638 -415.808)" fill="#666"/>
  </g>
  <g id="Group_517" data-name="Group 517" transform="translate(35.357)">
    <path id="Path_177" data-name="Path 177" d="M665.959,424.558a1.208,1.208,0,0,1-1.209-1.208v-4.022a1.1,1.1,0,0,0-1.1-1.1h-3.931a1.1,1.1,0,0,0-1.1,1.1,1.209,1.209,0,0,1-2.417,0,3.524,3.524,0,0,1,3.52-3.52h3.931a3.524,3.524,0,0,1,3.52,3.52v4.022A1.208,1.208,0,0,1,665.959,424.558Z" transform="translate(-656.197 -415.808)" fill="#666"/>
  </g>
  <g id="Group_518" data-name="Group 518" transform="translate(50.097)">
    <path id="Path_178" data-name="Path 178" d="M703.52,424.558a1.208,1.208,0,0,1-1.209-1.208v-4.022a1.1,1.1,0,0,0-1.1-1.1h-3.931a1.1,1.1,0,0,0-1.1,1.1,1.208,1.208,0,0,1-2.417,0,3.524,3.524,0,0,1,3.519-3.52h3.931a3.524,3.524,0,0,1,3.52,3.52v4.022A1.208,1.208,0,0,1,703.52,424.558Z" transform="translate(-693.758 -415.808)" fill="#666"/>
  </g>
  <g id="Group_519" data-name="Group 519" transform="translate(0 5.893)">
    <path id="Path_179" data-name="Path 179" d="M580.935,458.254h-10.6a4.238,4.238,0,0,1,0-8.476h3.277a.193.193,0,0,0,.193-.193V434.948a1.706,1.706,0,1,0-3.411,0A47.94,47.94,0,0,0,571.94,447a1.208,1.208,0,1,1-2.339.608,50.349,50.349,0,0,1-1.619-12.663,4.122,4.122,0,1,1,8.244,0v14.638a2.613,2.613,0,0,1-2.61,2.61H570.34a1.821,1.821,0,0,0,0,3.642h10.6a1.209,1.209,0,0,1,0,2.417Z" transform="translate(-566.102 -430.825)" fill="#666"/>
  </g>
  <g id="Group_520" data-name="Group 520" transform="translate(1.88 30.905)">
    <path id="Path_180" data-name="Path 180" d="M575.015,515.929a4.127,4.127,0,0,1-4.122-4.122,50.233,50.233,0,0,1,2.494-15.647l.251-.768a1.208,1.208,0,0,1,2.3.751l-.251.768a47.823,47.823,0,0,0-2.375,14.895,1.706,1.706,0,0,0,3.411,0V500a1.208,1.208,0,0,1,2.417,0v11.81A4.127,4.127,0,0,1,575.015,515.929Z" transform="translate(-570.893 -494.559)" fill="#666"/>
  </g>
  <g id="Group_521" data-name="Group 521" transform="translate(21.221 21.959)">
    <path id="Path_181" data-name="Path 181" d="M673.833,495.617H633.6a13.438,13.438,0,0,1-13.423-13.423V476.42a4.656,4.656,0,0,1,9.312,0v5.774a4.116,4.116,0,0,0,4.111,4.111,1.208,1.208,0,1,1,0,2.417,6.535,6.535,0,0,1-6.528-6.528V476.42a2.239,2.239,0,1,0-4.478,0v5.774A11.019,11.019,0,0,0,633.6,493.2h40.233a2.239,2.239,0,1,0,0-4.479H663.08a6.535,6.535,0,0,1-6.528-6.528V476.42a2.239,2.239,0,1,0-4.478,0v5.774a10.962,10.962,0,0,0,2.98,7.523,1.208,1.208,0,1,1-1.763,1.653,13.369,13.369,0,0,1-3.634-9.177V476.42a4.656,4.656,0,0,1,9.312,0v5.774a4.116,4.116,0,0,0,4.111,4.111h10.753a4.656,4.656,0,1,1,0,9.312Z" transform="translate(-620.177 -471.764)" fill="#666"/>
  </g>
  <g id="Group_522" data-name="Group 522" transform="translate(35.961 21.959)">
    <path id="Path_182" data-name="Path 182" d="M662.258,491.753a1.206,1.206,0,0,1-.881-.381,13.368,13.368,0,0,1-3.639-9.177V476.42a4.656,4.656,0,0,1,9.312,0v5.774a4.116,4.116,0,0,0,4.111,4.111,1.208,1.208,0,1,1,0,2.417,6.535,6.535,0,0,1-6.528-6.528V476.42a2.239,2.239,0,1,0-4.478,0v5.774a10.958,10.958,0,0,0,2.984,7.523,1.209,1.209,0,0,1-.881,2.036Z" transform="translate(-657.737 -471.764)" fill="#666"/>
  </g>
  <g id="Group_523" data-name="Group 523" transform="translate(68.422 48.935)">
    <path id="Path_183" data-name="Path 183" d="M748.885,548.469h-7.224a1.208,1.208,0,1,1,0-2.417h7.224a.262.262,0,0,0,.262-.262v-2.61a.262.262,0,0,0-.262-.262h-3a1.208,1.208,0,0,1,0-2.417h3a2.682,2.682,0,0,1,2.679,2.679v2.61A2.682,2.682,0,0,1,748.885,548.469Z" transform="translate(-740.452 -540.501)" fill="#666"/>
  </g>
  <g id="Group_524" data-name="Group 524" transform="translate(24.139 11.135)">
    <circle id="Ellipse_159" data-name="Ellipse 159" cx="1.964" cy="1.964" r="1.964" fill="#666"/>
  </g>
  <g id="Group_525" data-name="Group 525" transform="translate(38.879 11.135)">
    <circle id="Ellipse_160" data-name="Ellipse 160" cx="1.964" cy="1.964" r="1.964" fill="#666"/>
  </g>
  <g id="Group_526" data-name="Group 526" transform="translate(53.619 11.135)">
    <circle id="Ellipse_161" data-name="Ellipse 161" cx="1.964" cy="1.964" r="1.964" fill="#666"/>
  </g>
</svg>
