<svg id="Group_557" data-name="Group 557" xmlns="http://www.w3.org/2000/svg" width="58.354" height="68.031" viewBox="0 0 58.354 68.031">
  <g id="Group_549" data-name="Group 549" transform="translate(7.788 0)">
    <path id="Path_202" data-name="Path 202" d="M1520.782,421.316a1.209,1.209,0,0,1,0-2.417,1.58,1.58,0,0,0,0-3.16H1486a1.58,1.58,0,0,0,0,3.16h16.733a1.209,1.209,0,1,1,0,2.417H1486a4,4,0,0,1,0-7.993h34.785a4,4,0,0,1,0,7.993Z" transform="translate(-1482.001 -413.323)" fill="#666"/>
  </g>
  <g id="Group_550" data-name="Group 550" transform="translate(13.956 58.328)">
    <path id="Path_203" data-name="Path 203" d="M1526.952,571.655h-28.026a1.209,1.209,0,0,1-1.208-1.208v-3.057a1.208,1.208,0,0,1,2.417,0v1.849h25.609v-4.87h-26.818a1.209,1.209,0,0,1,0-2.417h28.026a1.209,1.209,0,0,1,1.208,1.209v7.286A1.209,1.209,0,0,1,1526.952,571.655Z" transform="translate(-1497.717 -561.951)" fill="#666"/>
  </g>
  <g id="Group_551" data-name="Group 551" transform="translate(45.361 5.576)">
    <path id="Path_204" data-name="Path 204" d="M1586.738,472.713a1.208,1.208,0,0,1-1.188-.992l-7.788-42.764a1.208,1.208,0,0,1,2.378-.433l7.789,42.764a1.209,1.209,0,0,1-1.19,1.425Z" transform="translate(-1577.742 -427.531)" fill="#666"/>
  </g>
  <g id="Group_552" data-name="Group 552" transform="translate(0 5.576)">
    <path id="Path_205" data-name="Path 205" d="M1516.513,478.289h-50.361a4,4,0,0,1-1.033-7.858l7.632-41.907a1.208,1.208,0,1,1,2.378.433l-7.788,42.764a1.208,1.208,0,0,1-1.189.992,1.58,1.58,0,1,0,0,3.16h50.361a1.58,1.58,0,1,0,0-3.16h-14.745a1.208,1.208,0,1,1,0-2.417h14.745a4,4,0,1,1,0,7.993Z" transform="translate(-1462.156 -427.531)" fill="#666"/>
  </g>
  <g id="Group_553" data-name="Group 553" transform="translate(38.404 5.576)">
    <path id="Path_206" data-name="Path 206" d="M1565.9,472.713a1.208,1.208,0,0,1-1.2-1.077l-4.673-42.764a1.208,1.208,0,0,1,2.4-.263l4.673,42.764a1.209,1.209,0,0,1-1.07,1.333A1.27,1.27,0,0,1,1565.9,472.713Z" transform="translate(-1560.016 -427.532)" fill="#666"/>
  </g>
  <g id="Group_554" data-name="Group 554" transform="translate(12.86 5.576)">
    <path id="Path_207" data-name="Path 207" d="M1496.136,472.713a1.272,1.272,0,0,1-.133-.007,1.209,1.209,0,0,1-1.07-1.333l4.673-42.764a1.208,1.208,0,0,1,2.4.263l-4.673,42.764A1.208,1.208,0,0,1,1496.136,472.713Z" transform="translate(-1494.925 -427.532)" fill="#666"/>
  </g>
  <g id="Group_555" data-name="Group 555" transform="translate(31.447 5.576)">
    <path id="Path_208" data-name="Path 208" d="M1545.053,472.713a1.209,1.209,0,0,1-1.207-1.164l-1.558-42.764a1.208,1.208,0,1,1,2.415-.088l1.558,42.764a1.209,1.209,0,0,1-1.164,1.252Z" transform="translate(-1542.288 -427.532)" fill="#666"/>
  </g>
  <g id="Group_556" data-name="Group 556" transform="translate(22.933 5.576)">
    <path id="Path_209" data-name="Path 209" d="M1521.8,472.713h-.045a1.208,1.208,0,0,1-1.163-1.252l1.557-42.764a1.208,1.208,0,1,1,2.415.088l-1.558,42.764A1.208,1.208,0,0,1,1521.8,472.713Z" transform="translate(-1520.592 -427.532)" fill="#666"/>
  </g>
</svg>
