<svg xmlns="http://www.w3.org/2000/svg" width="65.275" height="40.492" viewBox="0 0 65.275 40.492">
  <g id="Group_450" data-name="Group 450" transform="translate(0 -20.33)">
    <g id="Group_444" data-name="Group 444" transform="translate(7.766 20.33)">
      <path id="Path_117" data-name="Path 117" d="M2058.335,218.723a1.208,1.208,0,0,1-1.208-1.208V179.673a1.208,1.208,0,0,1,1.847-1.026l7.192,4.482a1.208,1.208,0,1,1-1.278,2.051l-5.344-3.33v35.665A1.209,1.209,0,0,1,2058.335,218.723Z" transform="translate(-2057.127 -178.464)" fill="#666"/>
    </g>
    <g id="Group_445" data-name="Group 445" transform="translate(0 20.33)">
      <path id="Path_118" data-name="Path 118" d="M2044.72,218.956h-6.175a1.209,1.209,0,0,1-1.208-1.209V179.673a1.209,1.209,0,0,1,1.208-1.209h3.537a1.209,1.209,0,0,1,0,2.417h-2.328v35.658h4.966a4.35,4.35,0,0,0,2.3-.659l9.694-6.04a1.208,1.208,0,1,1,1.278,2.051l-9.694,6.041A6.767,6.767,0,0,1,2044.72,218.956Z" transform="translate(-2037.337 -178.464)" fill="#666"/>
    </g>
    <g id="Group_446" data-name="Group 446" transform="translate(33.664 27.213)">
      <path id="Path_119" data-name="Path 119" d="M2139.056,222.729a1.208,1.208,0,0,1-1.208-1.208V203.252a1.208,1.208,0,1,1,2.417,0v16.092l4.039-2.516a1.26,1.26,0,0,0,.6-1.076V202.979a1.26,1.26,0,0,0-.6-1.076l-4.406-2.746a4.881,4.881,0,0,0-2.584-.739h-12.988a1.209,1.209,0,0,1,0-2.417h12.988a7.3,7.3,0,0,1,3.862,1.1l4.406,2.746a3.662,3.662,0,0,1,1.736,3.127v12.773a3.662,3.662,0,0,1-1.736,3.127l-5.885,3.667A1.21,1.21,0,0,1,2139.056,222.729Z" transform="translate(-2123.117 -196.002)" fill="#666"/>
    </g>
    <g id="Group_447" data-name="Group 447" transform="translate(18.812 20.33)">
      <path id="Path_120" data-name="Path 120" d="M2111.834,212.074H2086.48a1.208,1.208,0,0,1-1.208-1.208V186.555a1.208,1.208,0,0,1,1.208-1.208h9.266a.786.786,0,0,0,.73-.489l2.323-5.645a1.208,1.208,0,0,1,1.117-.749h5.543a1.209,1.209,0,0,1,1.118.749l2.832,6.883a1.209,1.209,0,0,1-2.235.919l-2.524-6.134h-3.925l-2.015,4.9a3.2,3.2,0,0,1-2.965,1.986h-8.057v21.894h24.145a1.208,1.208,0,0,1,0,2.417Z" transform="translate(-2085.272 -178.464)" fill="#666"/>
    </g>
    <g id="Group_448" data-name="Group 448" transform="translate(55.447 35.426)">
      <path id="Path_121" data-name="Path 121" d="M2187.243,227.231h-7.411a1.208,1.208,0,0,1,0-2.417h6.2v-5.469h-1.973a1.208,1.208,0,0,1,0-2.417h3.182a1.208,1.208,0,0,1,1.208,1.208v7.885A1.208,1.208,0,0,1,2187.243,227.231Z" transform="translate(-2178.624 -216.929)" fill="#666"/>
    </g>
  </g>
</svg>
