<svg id="Group_711" data-name="Group 711" xmlns="http://www.w3.org/2000/svg" width="44.137" height="68.744" viewBox="0 0 44.137 68.744">
  <g id="Group_699" data-name="Group 699" transform="translate(34.428 5.054)">
    <circle id="Ellipse_169" data-name="Ellipse 169" cx="1.964" cy="1.964" r="1.964" fill="#7cbe49"/>
  </g>
  <g id="Group_700" data-name="Group 700" transform="translate(34.428 59.763)">
    <circle id="Ellipse_170" data-name="Ellipse 170" cx="1.964" cy="1.964" r="1.964" fill="#7cbe49"/>
  </g>
  <g id="Group_701" data-name="Group 701" transform="translate(6.439 5.054)">
    <circle id="Ellipse_171" data-name="Ellipse 171" cx="1.964" cy="1.964" r="1.964" fill="#7cbe49"/>
  </g>
  <g id="Group_702" data-name="Group 702" transform="translate(28.646 0)">
    <path id="Path_325" data-name="Path 325" d="M982.956,771.488c-.151,0-.3-.005-.457-.015a7.016,7.016,0,0,1-4.625-11.847,2.506,2.506,0,0,0,.667-1.747V746.961a3.056,3.056,0,0,1,3.052-3.052h6.683V719.23a2.04,2.04,0,0,0-1.48-1.956l-.527-.149a2.044,2.044,0,0,1-.643-3.625,4.6,4.6,0,1,0-5.366-.007,2.046,2.046,0,0,1-.633,3.632l-.527.149a2.041,2.041,0,0,0-1.48,1.956V743.3a1.209,1.209,0,0,1-2.417,0V719.23A4.467,4.467,0,0,1,978.28,715a7.015,7.015,0,0,1-.125-10.361,6.969,6.969,0,0,1,5.27-1.877,7.057,7.057,0,0,1,6.511,6.339,6.965,6.965,0,0,1-2.316,5.9,4.468,4.468,0,0,1,3.075,4.232v24.817a2.281,2.281,0,0,1-2.279,2.279h-6.821a.636.636,0,0,0-.636.635v10.917a4.909,4.909,0,0,1-1.337,3.417,4.6,4.6,0,1,0,6.709.058,5.115,5.115,0,0,1-1.391-3.464v-8.542a1.209,1.209,0,0,1,2.417,0v8.542a2.708,2.708,0,0,0,.75,1.826,7.017,7.017,0,0,1-5.151,11.773Z" transform="translate(-975.204 -702.744)" fill="#7cbe49"/>
  </g>
  <g id="Group_703" data-name="Group 703" transform="translate(6.439 59.763)">
    <circle id="Ellipse_172" data-name="Ellipse 172" cx="1.964" cy="1.964" r="1.964" fill="#7cbe49"/>
  </g>
  <g id="Group_704" data-name="Group 704" transform="translate(1.386 44.732)">
    <path id="Path_326" data-name="Path 326" d="M912.765,840.738c-.151,0-.3-.005-.456-.015a7.015,7.015,0,0,1-4.625-11.847,2.507,2.507,0,0,0,.667-1.748v-9.194a1.208,1.208,0,0,1,2.417,0v9.194a4.91,4.91,0,0,1-1.337,3.417,4.6,4.6,0,1,0,6.709.058,5.115,5.115,0,0,1-1.392-3.464v-6.031a1.209,1.209,0,0,1,2.417,0v6.031a2.706,2.706,0,0,0,.75,1.825,7.017,7.017,0,0,1-5.151,11.774Z" transform="translate(-905.741 -816.726)" fill="#7cbe49"/>
  </g>
  <g id="Group_705" data-name="Group 705" transform="translate(1.386)">
    <path id="Path_327" data-name="Path 327" d="M909.558,723.357a1.208,1.208,0,0,1-1.208-1.208v-5.806a2.709,2.709,0,0,0-.751-1.826,7.017,7.017,0,0,1,5.608-11.759l.026,0a7.017,7.017,0,0,1,1.376,13.769,1.208,1.208,0,1,1-.637-2.331,4.6,4.6,0,0,0-.9-9.026l-.021,0a4.6,4.6,0,0,0-3.677,7.708,5.117,5.117,0,0,1,1.391,3.465v5.806A1.208,1.208,0,0,1,909.558,723.357Z" transform="translate(-905.74 -702.743)" fill="#7cbe49"/>
  </g>
  <g id="Group_706" data-name="Group 706" transform="translate(0 15.312)">
    <path id="Path_328" data-name="Path 328" d="M903.417,748.029a1.209,1.209,0,0,1-.312-2.376l14.388-3.852a1.208,1.208,0,1,1,.625,2.335l-14.388,3.852A1.221,1.221,0,0,1,903.417,748.029Z" transform="translate(-902.209 -741.76)" fill="#7cbe49"/>
  </g>
  <g id="Group_707" data-name="Group 707" transform="translate(0 21.946)">
    <path id="Path_329" data-name="Path 329" d="M903.417,764.933a1.209,1.209,0,0,1-.312-2.376l14.388-3.851a1.208,1.208,0,1,1,.625,2.335l-14.388,3.851A1.213,1.213,0,0,1,903.417,764.933Z" transform="translate(-902.209 -758.664)" fill="#7cbe49"/>
  </g>
  <g id="Group_708" data-name="Group 708" transform="translate(0 28.579)">
    <path id="Path_330" data-name="Path 330" d="M903.417,781.836a1.209,1.209,0,0,1-.312-2.376l14.388-3.852a1.208,1.208,0,0,1,.625,2.335l-14.388,3.852A1.218,1.218,0,0,1,903.417,781.836Z" transform="translate(-902.209 -775.567)" fill="#7cbe49"/>
  </g>
  <g id="Group_709" data-name="Group 709" transform="translate(0 35.213)">
    <path id="Path_331" data-name="Path 331" d="M903.417,798.74a1.209,1.209,0,0,1-.312-2.376l14.388-3.852a1.209,1.209,0,0,1,.625,2.335L903.731,798.7A1.2,1.2,0,0,1,903.417,798.74Z" transform="translate(-902.209 -792.471)" fill="#7cbe49"/>
  </g>
  <g id="Group_710" data-name="Group 710" transform="translate(0 41.846)">
    <path id="Path_332" data-name="Path 332" d="M903.417,815.643a1.209,1.209,0,0,1-.312-2.376l14.388-3.852a1.208,1.208,0,0,1,.625,2.335L903.73,815.6A1.213,1.213,0,0,1,903.417,815.643Z" transform="translate(-902.209 -809.374)" fill="#7cbe49"/>
  </g>
</svg>
