<svg id="Group_662" data-name="Group 662" xmlns="http://www.w3.org/2000/svg" width="72.288" height="72.284" viewBox="0 0 72.288 72.284">
  <g id="Group_654" data-name="Group 654" transform="translate(0)">
    <path id="Path_291" data-name="Path 291" d="M611.427,190.519a36.149,36.149,0,0,1-19.2-66.744,1.208,1.208,0,1,1,1.284,2.047,33.745,33.745,0,1,0,7.274-3.431,1.208,1.208,0,1,1-.765-2.292,36.131,36.131,0,1,1,11.408,70.421Z" transform="translate(-575.307 -118.235)" fill="#666"/>
  </g>
  <g id="Group_658" data-name="Group 658" transform="translate(7.651 7.165)">
    <g id="Group_655" data-name="Group 655" transform="translate(0.479)">
      <path id="Path_292" data-name="Path 292" d="M599.576,162.124a3.567,3.567,0,0,1-3.419-4.515,28.975,28.975,0,0,1,55.778,0,1.208,1.208,0,0,1-2.327.654,26.559,26.559,0,0,0-51.125,0,1.111,1.111,0,0,0,.367,1.17,1.13,1.13,0,0,0,1.237.151,54.671,54.671,0,0,1,47-.44,1.208,1.208,0,1,1-1.022,2.19,52.251,52.251,0,0,0-44.913.42A3.575,3.575,0,0,1,599.576,162.124Z" transform="translate(-596.022 -136.493)" fill="#666"/>
    </g>
    <g id="Group_656" data-name="Group 656" transform="translate(12.117 25.684)">
      <path id="Path_293" data-name="Path 293" d="M642.066,234.193H641.2a1.209,1.209,0,1,1,0-2.417h.861a26.559,26.559,0,0,0,26.083-21.567.254.254,0,0,0-.071-.235.238.238,0,0,0-.222-.069c-3.477.633-7.007,1.141-10.495,1.512a.442.442,0,0,0-.372.3,31.24,31.24,0,0,1-3.477,7.34,6.2,6.2,0,0,1-3.456,2.551,29.107,29.107,0,0,1-15.981,0,6.169,6.169,0,0,1-3.441-2.529A34.371,34.371,0,0,1,626,207.547a13.981,13.981,0,0,1-.234-4.533,1.208,1.208,0,0,1,2.4.267,11.572,11.572,0,0,0,.193,3.751,31.952,31.952,0,0,0,4.288,10.712,3.75,3.75,0,0,0,2.091,1.539,26.7,26.7,0,0,0,14.649,0,3.775,3.775,0,0,0,2.1-1.558,28.813,28.813,0,0,0,3.2-6.772,2.864,2.864,0,0,1,2.41-1.94c3.428-.364,6.9-.864,10.318-1.486a2.673,2.673,0,0,1,3.1,3.134A28.978,28.978,0,0,1,642.066,234.193Z" transform="translate(-625.679 -201.939)" fill="#666"/>
    </g>
    <g id="Group_657" data-name="Group 657" transform="translate(0 31.233)">
      <path id="Path_294" data-name="Path 294" d="M617.095,242.046a2.688,2.688,0,0,1-.632-.076,28.988,28.988,0,0,1-21.613-22.717,2.679,2.679,0,0,1,3.114-3.131c2.483.452,5,.841,7.484,1.157a1.208,1.208,0,1,1-.3,2.4c-2.526-.321-5.087-.717-7.612-1.176a.257.257,0,0,0-.237.075.247.247,0,0,0-.07.227,26.567,26.567,0,0,0,19.808,20.82.256.256,0,0,0,.237-.056.231.231,0,0,0,.082-.208l-.974-9.723a1.208,1.208,0,0,1,2.4-.241l.974,9.723a2.667,2.667,0,0,1-2.662,2.93Z" transform="translate(-594.802 -216.078)" fill="#666"/>
    </g>
  </g>
  <g id="Group_659" data-name="Group 659" transform="translate(39.851 50.624)">
    <path id="Path_295" data-name="Path 295" d="M678.064,257.844c-.04,0-.081,0-.122-.006a1.209,1.209,0,0,1-1.082-1.323l.821-8.195a1.208,1.208,0,0,1,2.4.241l-.821,8.194A1.209,1.209,0,0,1,678.064,257.844Z" transform="translate(-676.853 -247.232)" fill="#666"/>
  </g>
  <g id="Group_660" data-name="Group 660" transform="translate(25.049 34.588)">
    <circle id="Ellipse_165" data-name="Ellipse 165" cx="1.964" cy="1.964" r="1.964" fill="#666"/>
  </g>
  <g id="Group_661" data-name="Group 661" transform="translate(43.787 34.588)">
    <circle id="Ellipse_166" data-name="Ellipse 166" cx="1.964" cy="1.964" r="1.964" fill="#666"/>
  </g>
</svg>
