<svg id="Group_536" data-name="Group 536" xmlns="http://www.w3.org/2000/svg" width="80.613" height="81.014" viewBox="0 0 80.613 81.014">
  <g id="Group_528" data-name="Group 528" transform="translate(48.644 29.158)">
    <path id="Path_184" data-name="Path 184" d="M1298.82,777.564h-11.853a11.679,11.679,0,0,1-9.41-4.71,22.185,22.185,0,0,0-4.787-4.788,11.678,11.678,0,0,1-4.71-9.41,1.208,1.208,0,0,1,2.417,0,9.253,9.253,0,0,0,3.722,7.461,24.61,24.61,0,0,1,5.308,5.308,9.253,9.253,0,0,0,7.46,3.722h11.853a1.208,1.208,0,0,1,0,2.417Z" transform="translate(-1268.059 -757.448)" fill="#666"/>
  </g>
  <g id="Group_529" data-name="Group 529" transform="translate(3.021 64.838)">
    <path id="Path_185" data-name="Path 185" d="M1189.09,864.54a24.627,24.627,0,0,1-19.734-9.969,9.252,9.252,0,0,0-7.389-3.791h-8.955a1.208,1.208,0,0,1,0-2.417h8.955a11.677,11.677,0,0,1,9.333,4.773,22.1,22.1,0,0,0,35.579,0,11.678,11.678,0,0,1,9.333-4.773h8.954a1.208,1.208,0,1,1,0,2.417h-8.954a9.252,9.252,0,0,0-7.389,3.791A24.628,24.628,0,0,1,1189.09,864.54Z" transform="translate(-1151.805 -848.364)" fill="#666"/>
  </g>
  <g id="Group_530" data-name="Group 530" transform="translate(29.74 5.163)">
    <path id="Path_186" data-name="Path 186" d="M1224.307,717.185a1.209,1.209,0,0,1-1.208-1.208v-1.8a7.5,7.5,0,0,0-1.383-4.354,9.906,9.906,0,0,1-1.827-5.749v-6.562a1.209,1.209,0,0,1,2.417,0v6.562a7.5,7.5,0,0,0,1.383,4.354,9.906,9.906,0,0,1,1.827,5.749v1.8A1.209,1.209,0,0,1,1224.307,717.185Z" transform="translate(-1219.888 -696.303)" fill="#666"/>
  </g>
  <g id="Group_531" data-name="Group 531" transform="translate(0 5.163)">
    <path id="Path_187" data-name="Path 187" d="M1157.168,740.415h-11.853a1.208,1.208,0,1,1,0-2.417h11.853a9.3,9.3,0,0,0,7.616-3.938,22.51,22.51,0,0,1,5.178-5.112,9.256,9.256,0,0,0,3.7-7.445,2.286,2.286,0,0,1,2.288-2.283h12a1.41,1.41,0,0,0,1.408-1.408v-3.636a9.906,9.906,0,0,1,1.827-5.749,7.5,7.5,0,0,0,1.383-4.354v-6.562a1.209,1.209,0,0,1,2.417,0v6.562a9.907,9.907,0,0,1-1.827,5.749,7.5,7.5,0,0,0-1.384,4.354v3.636a3.829,3.829,0,0,1-3.825,3.825h-11.87a11.679,11.679,0,0,1-4.676,9.256,20.167,20.167,0,0,0-4.636,4.556A11.723,11.723,0,0,1,1157.168,740.415Z" transform="translate(-1144.106 -696.303)" fill="#666"/>
  </g>
  <g id="Group_532" data-name="Group 532" transform="translate(34.146)">
    <path id="Path_188" data-name="Path 188" d="M1237.276,699.627a6.168,6.168,0,0,1-6.161-6.161v-9.11a1.209,1.209,0,0,1,2.417,0v9.11a3.744,3.744,0,1,0,7.487,0v-9.11a1.209,1.209,0,0,1,2.417,0v9.11A6.168,6.168,0,0,1,1237.276,699.627Z" transform="translate(-1231.115 -683.148)" fill="#666"/>
  </g>
  <g id="Group_533" data-name="Group 533" transform="translate(38.343 8.355)">
    <path id="Path_189" data-name="Path 189" d="M1243.774,704.437a1.964,1.964,0,1,0,1.964,1.963A1.964,1.964,0,0,0,1243.774,704.437Z" transform="translate(-1241.81 -704.437)" fill="#666"/>
  </g>
  <g id="Group_534" data-name="Group 534" transform="translate(31.139 67.943)">
    <path id="Path_190" data-name="Path 190" d="M1225.417,856.276a1.964,1.964,0,1,0,1.963,1.964A1.964,1.964,0,0,0,1225.417,856.276Z" transform="translate(-1223.453 -856.276)" fill="#666"/>
  </g>
  <g id="Group_535" data-name="Group 535" transform="translate(45.547 67.943)">
    <path id="Path_191" data-name="Path 191" d="M1262.131,856.276a1.964,1.964,0,1,0,1.964,1.964A1.964,1.964,0,0,0,1262.131,856.276Z" transform="translate(-1260.167 -856.276)" fill="#666"/>
  </g>
</svg>
