<svg xmlns="http://www.w3.org/2000/svg" width="315.766" height="53.197" viewBox="0 0 315.766 53.197"><g transform="translate(-129.758 -259.672)"><g transform="translate(129.758 259.672)"><path d="M202.171,264.334c.913.584,1.381.881-.189-.124-4.22-2.7-1.727-1.1-.076-.045-13.614-8.646-33.308-4.761-38.078,11.188a201,201,0,0,1,39.418,4.574c-14.475-1.764-21.788-2.652-36.453-2.2,0,0-39.664,4.73-36.9,8.558,1.093,1.486,2.154,2.882,3.829,3.16,8.051,1.324,21.748-7.345,28.173-8.9,5.532-1.332,4.857-2.174,8.353,2.13,4.029,4.956,8.282,9.919,15.049,10.143,6.894.217,13.158-3.975,19.548-6.042,7.757-2.5,17.893-4.214,24.733-.591C230.826,286.848,207,267.531,202.171,264.334Z" transform="translate(-129.758 -259.672)" fill="#7cbe49"/><path d="M228.3,332.714a6.669,6.669,0,0,0-6.676,6.662,6.763,6.763,0,0,0,.047.748c-8.141-3.4-16.949-4.335-25.432-4.37-8.565-.036-17.431.869-25.679,4.163-.016-.194-.03-.388-.059-.582a7.466,7.466,0,0,0-6.623-6.411c-10.9-1.528-16,10.063-7.913,15.089a6.121,6.121,0,0,1-.3-1.788l-.028-1.539a6.154,6.154,0,0,1,.207-1.7l.1-.4c.761-3.7-1.255,5.4,5.2,6.215a7.828,7.828,0,0,0,5.682-.962,6.842,6.842,0,0,0,1.824-1.816.239.239,0,0,1,.046-.053l.05-.035.082-.061a.248.248,0,0,0,.041.051,3.085,3.085,0,0,0,.879.509,8.364,8.364,0,0,0,.75-2.713c8.266-3.314,17.156-4.225,25.743-4.189,8.71.037,18.278.507,26.6,4.135a15.159,15.159,0,0,0,1.737-.464,3.273,3.273,0,0,1-.264-2.173c.352-.165.7-.333,1.044-.514.017-.01.035-.016.052-.025a3.571,3.571,0,0,0,2.789,3.528,5.183,5.183,0,0,0,3.79-.3,4.025,4.025,0,0,0,1.185-.948l.589.22v0l.108.042.106-.171.007,0c.028-.047.053-.095.081-.142,0-.006.01-.012.013-.019V342.7a6.593,6.593,0,0,0,.9-3.329A6.668,6.668,0,0,0,228.3,332.714Zm-64.749,14.564a4.577,4.577,0,1,1,4.888-4.527A4.7,4.7,0,0,1,163.553,347.278Zm69.833-6.8a3.158,3.158,0,0,1-3.508,2.681,3.048,3.048,0,0,1-2.835-3.3,3.164,3.164,0,0,1,3.513-2.683A3.046,3.046,0,0,1,233.386,340.48Z" transform="translate(-140.752 -295.777)" fill="#7cbe49"/></g><g transform="translate(249.977 267.46)"><path d="M367.49,311.916v-34.4h6.652v29.91H390.9v4.487Z" transform="translate(-367.49 -276.283)" fill="#7cbe49"/><path d="M426.422,276.909c3.3,0,3.713.257,3.713,2.991,0,2.424-.361,3.043-3.713,3.043-3.4,0-3.661-.567-3.661-3.043C422.761,277.322,423.019,276.909,426.422,276.909Zm-3.3,34.705V285.881h6.652v25.733Z" transform="translate(-394.811 -275.981)" fill="#7cbe49"/><path d="M451.006,284.974v-2.785c0-5.93,2.991-7.116,9.7-7.116,1.341,0,2.836,0,5.156.206V279.1h-4.332c-2.733,0-4.125-.052-4.125,2.94v2.939h6.807V289H457.4v21.71h-6.395V289h-4.383v-4.022Z" transform="translate(-406.606 -275.073)" fill="#7cbe49"/><path d="M515.726,308.383h-2.115c-5.157.052-10.313.052-15.521.1.051,3.507.361,5.26,1.443,6.446,1.083,1.237,3.61,1.237,5.776,1.237,1.5,0,4.9-.155,8.715-.515v3.61a78.954,78.954,0,0,1-11.294.98c-9.334,0-11.036-3.3-11.036-13.408,0-10.365,1.444-13.407,12.016-13.407,10.159,0,12.015,2.939,12.015,13.356Zm-17.585-3.919h11.4c-.257-5.93-.876-7.013-5.827-7.013C498.4,297.451,498.4,299.513,498.141,304.464Z" transform="translate(-428.886 -284.147)" fill="#7cbe49"/><path d="M577.127,307.339V310.9a68.484,68.484,0,0,1-11.809.928c-10.623,0-14.748-1.7-14.9-15.935-.207-13.356,1.083-19.492,14.9-19.492.98,0,6.859.309,11.6.876v4.178c-7.736-.568-9.9-.671-10.623-.671-8.767,0-9.128,3.661-9.231,15.367-.155,11.6,3.146,11.4,13.562,11.4C572.8,307.494,574.962,307.391,577.127,307.339Z" transform="translate(-457.902 -275.728)" fill="#7cbe49"/><path d="M635.539,319.831h-5.569l-.464-1.908c-2.63,1.186-5.982,2.372-8.767,2.372-6.291,0-8.406-3.765-8.406-8.458,0-5.93,4.693-7.065,10.933-7.013l5.775.052V300.6c0-2.63-1.444-2.836-4.074-2.836a83.116,83.116,0,0,0-9.953.825c-.052-.155-.98-3.816-.98-4.022a72.164,72.164,0,0,1,11.758-1.031c6.652,0,9.746,1.186,9.746,7.219Zm-6.5-11.294c-7.941,0-10.365.309-10.365,3.507,0,2.165.671,3.661,2.682,3.661,1.908,0,5.466-1.032,7.683-1.7Z" transform="translate(-488.518 -284.197)" fill="#7cbe49"/><path d="M688.583,293.531v4.434a40.43,40.43,0,0,0-9.127,2.114v19.751h-6.549V294.046h5.776l.361,1.857A31.5,31.5,0,0,1,688.583,293.531Z" transform="translate(-518.46 -284.197)" fill="#7cbe49"/><path d="M732.708,312.919c0,4.951-4.177,7.117-9.54,7.117-5.879,0-10.675-.516-10.675-.516v-4.177s4.641.515,9.746.515c2.475,0,3.765-.67,3.765-2.475,0-4.744-15.264-3.971-15.264-12.634,0-4.951,4.125-7.116,9.489-7.116,5.93,0,10.726.515,10.726.515v4.177s-5.311-.464-10.468-.464c-2.166,0-3.146.773-3.146,2.423C717.341,304.565,732.708,304.307,732.708,312.919Z" transform="translate(-537.161 -284.247)" fill="#7cbe49"/></g></g></svg>