<svg xmlns="http://www.w3.org/2000/svg" width="71.6" height="60.724" viewBox="0 0 71.6 60.724"><g transform="translate(0 -38.85)"><g transform="translate(0 38.85)"><path d="M0,331.48v9.467H47.573v-2.1H2.1V333.58H69.5v5.267H49.672v2.1H71.6V331.48Z" transform="translate(0 -290.517)" fill="#05f26c"/><path d="M68.545,234.794a5.873,5.873,0,1,0,5.873-5.873A5.88,5.88,0,0,0,68.545,234.794Zm9.646,0a3.773,3.773,0,1,1-3.773-3.773A3.778,3.778,0,0,1,78.191,234.794Z" transform="translate(-58.95 -202.315)" fill="#05f26c"/><path d="M364.418,228.921a5.873,5.873,0,1,0,5.873,5.873A5.88,5.88,0,0,0,364.418,228.921Zm0,9.646a3.773,3.773,0,1,1,3.773-3.773A3.777,3.777,0,0,1,364.418,238.567Z" transform="translate(-308.355 -202.315)" fill="#05f26c"/><path d="M27.98,61.242l-5.65,5.65v9.772h2.1v-8.9l4.647-4.647H80.862l4.647,4.647v8.9h2.1V66.891l-5.65-5.65L76.385,38.85H33.554ZM35.194,40.95H74.745l.679,2.717H42.114v2.1H75.949l3.79,15.248H30.2l3.79-15.248h6.024v-2.1h-5.5Z" transform="translate(-19.204 -38.85)" fill="#05f26c"/><path d="M177.656,232.921h21.863v2.1H177.656Z" transform="translate(-152.787 -205.755)" fill="#05f26c"/><path d="M177.4,263.376h21.863v2.1H177.4Z" transform="translate(-152.57 -231.947)" fill="#05f26c"/><path d="M177.15,293.832h21.863v2.1H177.15Z" transform="translate(-152.352 -258.139)" fill="#05f26c"/><path d="M461.545,147.791h-.876v2.1h2.976V139.75H458.67v2.1h2.875Z" transform="translate(-394.465 -125.626)" fill="#05f26c"/><path d="M19.766,147.791H18.89V141.85h2.875v-2.1H16.79v10.14h2.976Z" transform="translate(-14.44 -125.626)" fill="#05f26c"/><path d="M34.088,425.8l-.855.855H25.285l-.855-.855v-4.19h-2.1v5.06l2.085,2.085H34.1l2.085-2.085v-5.06h-2.1Z" transform="translate(-19.204 -368.031)" fill="#05f26c"/><path d="M401.428,425.8l-.855.855h-7.949l-.855-.855v-4.19h-2.1v5.06l2.085,2.085h9.689l2.085-2.085v-5.06h-2.1Z" transform="translate(-335.124 -368.031)" fill="#05f26c"/></g><g transform="translate(28.346 52.34)"><path d="M217.2,137.323h-2.1v-2.1h2.1Zm-6.3,0h-2.1v-2.1h2.1Zm-6.3,0h-2.1v-2.1h2.1Z" transform="translate(-202.5 -135.223)" fill="#05f26c"/></g><g transform="translate(9.014 92.342)"><path d="M64.395,420.987h2.1v2.1h-2.1Z" transform="translate(-64.395 -420.987)" fill="#05f26c"/></g><g transform="translate(60.436 92.342)"><path d="M431.74,420.987h2.1v2.1h-2.1Z" transform="translate(-431.74 -420.987)" fill="#05f26c"/></g></g></svg>