<svg xmlns="http://www.w3.org/2000/svg" width="38.467" height="25.628" viewBox="0 0 38.467 25.628"><g transform="translate(0 -85.334)"><path d="M0,213.57v9.955a5.191,5.191,0,0,0,5.191,5.191H33.276a5.191,5.191,0,0,0,5.191-5.191V213.57a.9.9,0,0,0-.9-.9H.9A.9.9,0,0,0,0,213.57Zm9.6,6.319H7.2a1.58,1.58,0,1,1,0-3.16H9.6a1.58,1.58,0,0,1,0,3.16Z" transform="translate(0 -117.754)" fill="#a6a6a6"/><path d="M38.467,90.851v-.326a5.191,5.191,0,0,0-5.191-5.191H5.191A5.191,5.191,0,0,0,0,90.525v.326a.9.9,0,0,0,.9.9H37.564A.9.9,0,0,0,38.467,90.851Z" fill="#a6a6a6"/></g></svg>