<svg xmlns="http://www.w3.org/2000/svg" width="55.307" height="54.253" viewBox="0 0 55.307 54.253"><g transform="translate(-0.382 -1)"><path d="M30.987,32.2l-.619-.615-.616.616c-.041.04-4.124,4.053-9.744,3.184L19,35.233v5.462c0,11,10.987,14.72,11.1,14.755l.272.089.272-.089c.111-.036,11.1-3.753,11.1-14.755V35.233l-1.008.156C35.143,36.251,31.028,32.244,30.987,32.2Zm9,8.491c0,8.914-7.983,12.379-9.617,12.994-1.583-.612-9.624-4.16-9.624-12.994V37.23a13.937,13.937,0,0,0,9.621-3.239,13.967,13.967,0,0,0,9.621,3.239Z" transform="translate(-2.335 -3.836)" fill="#7cbe49"/><path d="M29.41,48.467l-2.88-2.88-1.237,1.237L29.41,50.94l8.49-8.49-1.237-1.237Z" transform="translate(-3.124 -5.043)" fill="#7cbe49"/><path d="M55.689,41.232H48.151V39.483A1.751,1.751,0,0,0,46.4,37.733H42.877c.011-.275.026-.547.026-.829v-.92h5.248A1.751,1.751,0,0,0,49.9,34.235V2.749A1.751,1.751,0,0,0,48.151,1H7.919A1.751,1.751,0,0,0,6.17,2.749V34.235a1.751,1.751,0,0,0,1.749,1.749h5.248v.92c0,.283.015.554.026.829H9.669a1.751,1.751,0,0,0-1.749,1.749v1.749H.382L2.569,45.6.382,49.978h11.91a1.751,1.751,0,0,0,1.749-1.749V46.48h1.749V46.44c4.187,6.7,11.925,8.733,12.032,8.759l.213.053.213-.054c.107-.026,7.846-2.056,12.032-8.759v.04h1.749v1.749a1.751,1.751,0,0,0,1.749,1.749h11.91L53.5,45.6ZM21.913,2.749H34.158v7.509L31.534,7.635l-3.5,3.5-3.5-3.5-2.624,2.624ZM7.919,34.235V2.749H20.164V14.481l4.373-4.373,3.5,3.5,3.5-3.5,4.373,4.373V2.749H48.151V34.235H42.9V27.047l-1.209.5c-7.185,2.968-12.768-3.245-13-3.51l-.659-.749-.656.75c-.057.066-5.793,6.487-13,3.509l-1.21-.5v7.188Zm4.373,13.994H3.212L4.524,45.6,3.212,42.981H7.919V44.73A1.751,1.751,0,0,0,9.669,46.48h2.624Zm-2.624-3.5V39.483h3.66a17.327,17.327,0,0,0,1.525,5.248Zm18.37,8.714c-1.7-.5-13.123-4.338-13.123-16.54v-7.31c6.278,1.88,11.364-2.106,13.119-3.743,1.754,1.637,6.839,5.621,13.119,3.743V36.9C41.154,49.221,29.821,52.936,28.039,53.444Zm14.7-13.961H46.4V44.73H41.216A17.351,17.351,0,0,0,42.742,39.483Zm10.117,8.746h-9.08V46.48H46.4a1.751,1.751,0,0,0,1.749-1.749V42.981h4.707L51.546,45.6Z" transform="translate(0 0)" fill="#7cbe49"/></g></svg>