<svg xmlns="http://www.w3.org/2000/svg" width="31.268" height="21.072" viewBox="0 0 31.268 21.072"><g transform="translate(0 -83.476)"><g transform="translate(22.18 85.461)"><path d="M372.069,115.988l-8.883,8.883,8.664,8.671a3.024,3.024,0,0,0,.424-1.526V117.061A3.028,3.028,0,0,0,372.069,115.988Z" transform="translate(-363.186 -115.988)" fill="#485e66"/></g><g transform="translate(1.655 83.476)"><path d="M53.659,83.476H28.509a3.019,3.019,0,0,0-1.4.357L40.458,97.186a1.039,1.039,0,0,0,1.441,0L55.189,83.9A3.023,3.023,0,0,0,53.659,83.476Z" transform="translate(-27.105 -83.476)" fill="#485e66"/></g><g transform="translate(0 85.316)"><path d="M.257,113.611A3.035,3.035,0,0,0,0,114.829v14.954a3.022,3.022,0,0,0,.412,1.5l8.758-8.764Z" transform="translate(0 -113.611)" fill="#485e66"/></g><g transform="translate(1.955 95.677)"><path d="M50.783,283.383l-2.834,2.841a3.078,3.078,0,0,1-4.33,0l-2.95-2.957-8.663,8.657a3.031,3.031,0,0,0,1.1.214H58.26a3.027,3.027,0,0,0,1.078-.206Z" transform="translate(-32.006 -283.267)" fill="#485e66"/></g></g></svg>