<svg xmlns="http://www.w3.org/2000/svg" width="49.307" height="49.308" viewBox="0 0 49.307 49.308"><g transform="translate(-0.007)"><g transform="translate(6.904 43.222)"><path d="M69.734,452.3a1.014,1.014,0,1,0,.3.717A1.021,1.021,0,0,0,69.734,452.3Z" transform="translate(-68.003 -452.001)" fill="#7cbe49"/></g><g transform="translate(43.274 17.298)"><path d="M454.186,180.305a1.011,1.011,0,1,0,.3.717A1.02,1.02,0,0,0,454.186,180.305Z" transform="translate(-452.454 -180.008)" fill="#7cbe49"/></g><g transform="translate(0.007)"><path d="M49.032.282A.964.964,0,0,0,48.35,0H24.66A.963.963,0,0,0,23.7.964V3.718L14.569,6.164a.963.963,0,0,0-.681,1.179L18.619,25l-4.093,4.093a2.888,2.888,0,0,0-2.385-1.261H2.9A2.892,2.892,0,0,0,.007,30.722v15.7A2.892,2.892,0,0,0,2.9,49.308h9.245a2.894,2.894,0,0,0,2.8-2.194l1.145,1a4.852,4.852,0,0,0,3.189,1.2H48.351a.963.963,0,0,0,.963-.963V.963A.964.964,0,0,0,49.032.282ZM13.1,46.419a.964.964,0,0,1-.963.963H2.9a.964.964,0,0,1-.963-.963v-15.7a.964.964,0,0,1,.963-.963H6.555V40.852a.963.963,0,0,0,1.926,0V29.759h3.659a.964.964,0,0,1,.963.963v15.7ZM16,7.776l7.7-2.063V9.281l-.645.173a.963.963,0,0,0-.681,1.179,2.6,2.6,0,0,1-1.834,3.176.963.963,0,0,0-.68,1.181l3.754,13.9H21.678l-1-3.9a.962.962,0,0,0-.161-.338ZM23.7,13.7v8.126l-1.757-6.5A4.512,4.512,0,0,0,23.7,13.7ZM37.533,47.382H19.279a2.926,2.926,0,0,1-1.924-.721L15.03,44.633V31.313l4.2-4.2L20,30.092a.963.963,0,0,0,.933.724H39.864a1.348,1.348,0,0,1,0,2.7h-9.7a.963.963,0,0,0,0,1.926H42.878a1.348,1.348,0,1,1,0,2.7H30.162a.963.963,0,0,0,0,1.926H40.818a1.348,1.348,0,0,1,0,2.7H30.162a.963.963,0,1,0,0,1.926h7.37a1.348,1.348,0,1,1,0,2.7Zm9.855,0H40.515a3.263,3.263,0,0,0,0-2.7h.3a3.272,3.272,0,0,0,2.927-4.74,3.271,3.271,0,0,0,1.762-5.108V22.632a.963.963,0,0,0-1.926,0V33.591a3.275,3.275,0,0,0-.7-.077h-.032a3.272,3.272,0,0,0-2.983-4.623H38.316a4.609,4.609,0,1,0-3.621,0H29.43V10.58a4.533,4.533,0,0,0,3.453-3.453h7.244A4.533,4.533,0,0,0,43.58,10.58v2.994a.963.963,0,1,0,1.926,0V9.72a.963.963,0,0,0-.963-.963A2.6,2.6,0,0,1,41.95,6.164a.963.963,0,0,0-.963-.963H32.023a.963.963,0,0,0-.963.963,2.6,2.6,0,0,1-2.593,2.593.963.963,0,0,0-.963.963V28.892H25.623V1.927H47.388ZM36.505,27.337a2.683,2.683,0,1,1,2.683-2.683A2.686,2.686,0,0,1,36.505,27.337Z" transform="translate(-0.007)" fill="#7cbe49"/></g></g></svg>