<svg xmlns="http://www.w3.org/2000/svg" width="59.384" height="51.466" viewBox="0 0 59.384 51.466"><g transform="translate(0 0)"><path d="M57.065,46.778a7.629,7.629,0,0,0-5.6-2.32H44.539l-1.577-4.206a5.745,5.745,0,0,0-2.15-2.614,5.509,5.509,0,0,0-3.2-1.1H21.774a5.509,5.509,0,0,0-3.2,1.1,5.746,5.746,0,0,0-2.15,2.614l-1.577,4.206H7.918a7.629,7.629,0,0,0-5.6,2.32A7.628,7.628,0,0,0,0,52.376V80.088a7.627,7.627,0,0,0,2.32,5.6,7.629,7.629,0,0,0,5.6,2.32H51.466a7.92,7.92,0,0,0,7.918-7.918V52.376A7.628,7.628,0,0,0,57.065,46.778ZM39.481,76.022a13.344,13.344,0,0,1-9.789,4.068A13.345,13.345,0,0,1,19.9,76.022a13.813,13.813,0,0,1,0-19.578,13.344,13.344,0,0,1,9.789-4.067,13.345,13.345,0,0,1,9.789,4.067,13.813,13.813,0,0,1,0,19.578Z" transform="translate(0 -36.54)" fill="#d9d9d9"/><path d="M200.764,228.4a8.924,8.924,0,1,0,6.294,2.614A8.579,8.579,0,0,0,200.764,228.4Z" transform="translate(-171.072 -207.618)" fill="#d9d9d9"/></g></svg>