<svg xmlns="http://www.w3.org/2000/svg" width="67.573" height="42.745" viewBox="0 0 67.573 42.745"><g transform="translate(0 -94.062)"><g transform="translate(0 94.062)"><path d="M62.843,112.183l-1.75-7a1.058,1.058,0,0,0,.837-1.035V103.02a4.449,4.449,0,0,0-4.444-4.444H49.516V96.249a2.189,2.189,0,0,0-2.187-2.187H6.7a2.189,2.189,0,0,0-2.187,2.187v19.186a1.058,1.058,0,1,0,2.116,0V96.249a.07.07,0,0,1,.07-.07H47.33a.07.07,0,0,1,.07.07v19.186a1.058,1.058,0,1,0,2.116,0v-1.2H62a3.462,3.462,0,0,1,3.288,2.4H62a1.058,1.058,0,0,0-1.058,1.058v2.257a3.319,3.319,0,0,0,3.315,3.315h1.2v4.655H62.691a6.7,6.7,0,0,0-12.665,0h-.509v-7.971a1.058,1.058,0,0,0-2.116,0v7.97H25.448a6.7,6.7,0,0,0-12.665,0H6.7a.07.07,0,0,1-.07-.07v-2.328h4.585a1.058,1.058,0,1,0,0-2.116H1.058a1.058,1.058,0,1,0,0,2.116H4.514v2.328A2.189,2.189,0,0,0,6.7,130.035h5.715c0,.023,0,.047,0,.07a6.7,6.7,0,1,0,13.4,0c0-.024,0-.047,0-.07H49.659c0,.023,0,.047,0,.07a6.7,6.7,0,1,0,13.4,0c0-.024,0-.047,0-.07h3.458a1.058,1.058,0,0,0,1.058-1.058V117.692A5.581,5.581,0,0,0,62.843,112.183Zm-13.327-11.49h7.971a2.33,2.33,0,0,1,2.328,2.328v.07h-10.3Zm0,11.427v-6.913h9.4l1.728,6.913H49.516Zm-30.4,22.572a4.585,4.585,0,1,1,4.585-4.585A4.59,4.59,0,0,1,19.115,134.691Zm37.243,0a4.585,4.585,0,1,1,4.585-4.585A4.59,4.59,0,0,1,56.358,134.691Zm9.1-13.543h-1.2a1.2,1.2,0,0,1-1.2-1.2v-1.2h2.4v2.4Z" transform="translate(0 -94.062)" fill="#7cbe49"/></g><g transform="translate(16.929 127.919)"><path d="M130.454,350.6a2.187,2.187,0,1,0,2.187,2.187A2.189,2.189,0,0,0,130.454,350.6Z" transform="translate(-128.267 -350.597)" fill="#7cbe49"/></g><g transform="translate(54.172 127.919)"><path d="M412.642,350.6a2.187,2.187,0,1,0,2.187,2.187A2.189,2.189,0,0,0,412.642,350.6Z" transform="translate(-410.455 -350.597)" fill="#7cbe49"/></g><g transform="translate(27.086 123.405)"><g transform="translate(0 0)"><path d="M222.085,316.393h-15.8a1.058,1.058,0,1,0,0,2.116h15.8a1.058,1.058,0,1,0,0-2.116Z" transform="translate(-205.227 -316.393)" fill="#7cbe49"/></g></g><g transform="translate(2.257 118.891)"><g transform="translate(0 0)"><path d="M31.7,282.188H18.16a1.058,1.058,0,1,0,0,2.116H31.7a1.058,1.058,0,1,0,0-2.116Z" transform="translate(-17.102 -282.188)" fill="#7cbe49"/></g></g><g transform="translate(19.186 104.219)"><path d="M162.976,171.332a1.058,1.058,0,0,0-1.5,0l-9.409,9.409-4.895-4.895a1.058,1.058,0,1,0-1.5,1.5l5.643,5.643a1.058,1.058,0,0,0,1.5,0l10.157-10.157A1.058,1.058,0,0,0,162.976,171.332Z" transform="translate(-145.37 -171.023)" fill="#7cbe49"/></g></g></svg>