<svg xmlns="http://www.w3.org/2000/svg" width="67.573" height="42.745" viewBox="0 0 67.573 42.745"><path d="M4.73,112.183l1.75-7a1.058,1.058,0,0,1-.837-1.035V103.02a4.449,4.449,0,0,1,4.444-4.444h7.97V96.249a2.189,2.189,0,0,1,2.187-2.187H60.872a2.189,2.189,0,0,1,2.187,2.187v19.186a1.058,1.058,0,1,1-2.116,0V96.249a.07.07,0,0,0-.07-.07H20.244a.07.07,0,0,0-.07.07v19.186a1.058,1.058,0,1,1-2.116,0v-1.2H5.57a3.462,3.462,0,0,0-3.288,2.4h3.29a1.058,1.058,0,0,1,1.058,1.058v2.257a3.319,3.319,0,0,1-3.315,3.315h-1.2v4.655H4.883a6.7,6.7,0,0,1,12.665,0h.509v-7.971a1.058,1.058,0,0,1,2.116,0v7.97H42.125a6.7,6.7,0,0,1,12.665,0h6.082a.07.07,0,0,0,.07-.07v-2.328H56.358a1.058,1.058,0,0,1,0-2.116H66.515a1.058,1.058,0,0,1,0,2.116H63.059v2.328a2.189,2.189,0,0,1-2.187,2.187H55.157c0,.023,0,.047,0,.07a6.7,6.7,0,1,1-13.4,0c0-.024,0-.047,0-.07H17.914c0,.023,0,.047,0,.07a6.7,6.7,0,1,1-13.4,0c0-.024,0-.047,0-.07H1.058A1.058,1.058,0,0,1,0,128.977V117.692A5.581,5.581,0,0,1,4.73,112.183Zm13.327-11.49h-7.97a2.33,2.33,0,0,0-2.328,2.328v.07h10.3Zm0,11.427v-6.913h-9.4l-1.728,6.913h11.13Zm30.4,22.572a4.585,4.585,0,1,0-4.585-4.585A4.59,4.59,0,0,0,48.458,134.691Zm-37.243,0a4.585,4.585,0,1,0-4.585-4.585A4.59,4.59,0,0,0,11.215,134.691Zm-9.1-13.543h1.2a1.2,1.2,0,0,0,1.2-1.2v-1.2h-2.4v2.4Z" transform="translate(0 -94.062)" fill="#7cbe49"/><g transform="translate(46.271 33.857)"><g transform="translate(0)"><path d="M130.454,350.6a2.187,2.187,0,1,1-2.187,2.187A2.189,2.189,0,0,1,130.454,350.6Z" transform="translate(-128.267 -350.597)" fill="#7cbe49"/></g></g><g transform="translate(9.028 33.857)"><path d="M412.642,350.6a2.187,2.187,0,1,1-2.187,2.187A2.189,2.189,0,0,1,412.642,350.6Z" transform="translate(-410.455 -350.597)" fill="#7cbe49"/></g><g transform="translate(22.571 29.343)"><g transform="translate(0 0)"><path d="M206.285,316.393h15.8a1.058,1.058,0,1,1,0,2.116h-15.8a1.058,1.058,0,0,1,0-2.116Z" transform="translate(-205.227 -316.393)" fill="#7cbe49"/></g></g><g transform="translate(49.657 24.829)"><g transform="translate(0 0)"><path d="M18.16,282.188H31.7a1.058,1.058,0,1,1,0,2.116H18.16a1.058,1.058,0,1,1,0-2.116Z" transform="translate(-17.102 -282.188)" fill="#7cbe49"/></g></g></svg>