<svg xmlns="http://www.w3.org/2000/svg" width="27.645" height="27.645" viewBox="0 0 27.645 27.645"><path d="M25.621,2.513H5.026a.616.616,0,0,0-.177.041L4.343.891A1.256,1.256,0,0,0,3.141,0H.628A.628.628,0,0,0,0,.628V1.885a.628.628,0,0,0,.628.628H2.211l3.926,12.9L4.67,17.124A2.619,2.619,0,0,0,4.1,19.581,2.5,2.5,0,0,0,6.5,21.362h18a.628.628,0,0,0,.628-.628V19.477a.628.628,0,0,0-.628-.628H6.5l1.992-2.324a1.247,1.247,0,0,0,.125-.19H20.794a2.514,2.514,0,0,0,2.275-1.444l4.384-9.317a2.04,2.04,0,0,0,.192-.861V4.537A2.024,2.024,0,0,0,25.621,2.513Z" fill="#fefefe"/><circle cx="2.513" cy="2.513" r="2.513" transform="translate(5.026 22.618)" fill="#fefefe"/><circle cx="2.513" cy="2.513" r="2.513" transform="translate(20.105 22.618)" fill="#fefefe"/></svg>