<svg xmlns="http://www.w3.org/2000/svg" width="30.111" height="30.112" viewBox="0 0 30.111 30.112"><g transform="translate(-0.006)"><g transform="translate(0.006)"><path d="M22.9,63.166a2.11,2.11,0,0,0-3.189,0c-.746.739-1.491,1.479-2.224,2.231a.439.439,0,0,1-.614.113c-.482-.263-1-.476-1.46-.764A23.132,23.132,0,0,1,9.834,59.67a13.212,13.212,0,0,1-2-3.2.459.459,0,0,1,.113-.589c.746-.721,1.473-1.46,2.206-2.2a2.118,2.118,0,0,0-.006-3.265c-.583-.589-1.165-1.165-1.748-1.754-.6-.6-1.2-1.209-1.8-1.8a2.123,2.123,0,0,0-3.189.006c-.752.739-1.473,1.5-2.237,2.224a3.631,3.631,0,0,0-1.14,2.45A10.38,10.38,0,0,0,.83,56a27.148,27.148,0,0,0,4.819,8.027,29.819,29.819,0,0,0,9.875,7.726,14.282,14.282,0,0,0,5.47,1.592,4.009,4.009,0,0,0,3.44-1.31c.639-.714,1.36-1.366,2.036-2.049a2.132,2.132,0,0,0,.013-3.246Q24.7,64.949,22.9,63.166Z" transform="translate(-0.006 -43.246)" fill="#bfbfbf"/><path d="M244.646,104.91l2.312-.395A10.379,10.379,0,0,0,238.18,96l-.326,2.325a8.021,8.021,0,0,1,6.792,6.586Z" transform="translate(-222.95 -89.985)" fill="#bfbfbf"/><path d="M252.855,4.875A17.049,17.049,0,0,0,243.08,0l-.326,2.325a14.877,14.877,0,0,1,12.589,12.2l2.312-.395A17.174,17.174,0,0,0,252.855,4.875Z" transform="translate(-227.543)" fill="#bfbfbf"/></g></g></svg>