<svg xmlns="http://www.w3.org/2000/svg" width="21.734" height="24.596" viewBox="0 0 21.734 24.596"><g transform="translate(-29.786)"><g transform="translate(29.786 8.115)"><path d="M46.053,183.059a.48.48,0,0,0-.665-.14,9.478,9.478,0,0,1-13.026-13.241.48.48,0,0,0-.8-.537,10.439,10.439,0,0,0,14.347,14.583A.48.48,0,0,0,46.053,183.059Z" transform="translate(-29.786 -168.929)" fill="#fefefe"/></g><g transform="translate(46.832 20.651)"><path d="M385.464,430.027a.48.48,0,0,0-.679.007l-.016.016a.48.48,0,0,0,.682.677l.02-.02A.48.48,0,0,0,385.464,430.027Z" transform="translate(-384.63 -429.889)" fill="#fefefe"/></g><g transform="translate(34.269)"><g transform="translate(0)"><path d="M138.442,7.873a.48.48,0,0,0,.679,0l.8-.8a1.464,1.464,0,0,0,0-2.068l-1.715-1.715a1.463,1.463,0,0,0-2.068,0l-.8.8a.48.48,0,0,0,0,.679l.227.227-.576.576a10.317,10.317,0,0,0-4.064-1.683V3.075h1.057a.48.48,0,0,0,.48-.48V.48a.48.48,0,0,0-.48-.48h-5.861a.48.48,0,0,0-.48.48V2.594a.48.48,0,0,0,.48.48h1.057V3.89a10.375,10.375,0,0,0-3.865,1.55.48.48,0,1,0,.529.8,9.478,9.478,0,0,1,13.264,12.914.48.48,0,1,0,.816.507,10.448,10.448,0,0,0-.283-11.441l.576-.576Zm-8.477-4.112c-.3-.026-.606-.04-.913-.04s-.61.013-.913.04V3.075h1.826v.687Zm-2.306-1.648H126.6V.961h4.9V2.114h-3.843Zm9.391,5.338q-.293-.348-.617-.674t-.674-.617l.486-.486,1.291,1.291Zm-.466-2.8h0l-.227-.227.461-.461a.5.5,0,0,1,.71,0l1.715,1.715a.5.5,0,0,1,0,.71l-.46.46-.226-.226h0Z" transform="translate(-123.097)" fill="#fefefe"/></g></g><g transform="translate(39.743 7.35)"><path d="M237.535,152.992a.48.48,0,0,0-.48.48v1.057a.48.48,0,1,0,.961,0v-1.057A.48.48,0,0,0,237.535,152.992Z" transform="translate(-237.055 -152.992)" fill="#fefefe"/></g><g transform="translate(44.218 9.203)"><path d="M331.028,191.719a.48.48,0,1,0,.141.34A.484.484,0,0,0,331.028,191.719Z" transform="translate(-330.208 -191.578)" fill="#fefefe"/></g><g transform="translate(45.015 13.678)"><path d="M348.331,284.733h-1.057a.48.48,0,0,0,0,.961h1.057a.48.48,0,1,0,0-.961Z" transform="translate(-346.794 -284.733)" fill="#fefefe"/></g><g transform="translate(44.218 18.153)"><path d="M331.028,378.026a.48.48,0,1,0,.141.34A.484.484,0,0,0,331.028,378.026Z" transform="translate(-330.208 -377.885)" fill="#fefefe"/></g><g transform="translate(39.743 18.95)"><path d="M237.535,394.473a.48.48,0,0,0-.48.48v1.057a.48.48,0,0,0,.961,0v-1.057A.48.48,0,0,0,237.535,394.473Z" transform="translate(-237.055 -394.473)" fill="#fefefe"/></g><g transform="translate(35.268 18.153)"><g transform="translate(0)"><path d="M144.72,378.026a.48.48,0,1,0,.141.34A.484.484,0,0,0,144.72,378.026Z" transform="translate(-143.9 -377.885)" fill="#fefefe"/></g></g><g transform="translate(33.414 13.678)"><path d="M106.85,284.733h-1.057a.48.48,0,1,0,0,.961h1.057a.48.48,0,1,0,0-.961Z" transform="translate(-105.313 -284.733)" fill="#fefefe"/></g><g transform="translate(35.268 9.203)"><g transform="translate(0)"><path d="M144.72,191.719a.48.48,0,1,0,.141.34A.484.484,0,0,0,144.72,191.719Z" transform="translate(-143.9 -191.578)" fill="#fefefe"/></g></g><g transform="translate(38.59 10.267)"><path d="M218.438,213.866a.48.48,0,0,0-.588-.071l-3.966,2.4a1.265,1.265,0,0,0-.144.092,1.633,1.633,0,1,0,2.273,2.281,1.153,1.153,0,0,0,.1-.149l2.4-3.965A.481.481,0,0,0,218.438,213.866Zm-3.157,4.065-.04.066a.672.672,0,1,1-.934-.934l.065-.039a.672.672,0,0,1,.909.908Zm.751-1.24a1.646,1.646,0,0,0-.419-.419l1.062-.643Z" transform="translate(-213.054 -213.725)" fill="#fefefe"/></g><g transform="translate(31.901 5.837)"><path d="M82.14,121.5a8.322,8.322,0,1,0,8.322,8.322A8.332,8.332,0,0,0,82.14,121.5Zm0,15.683a7.361,7.361,0,1,1,7.361-7.361A7.37,7.37,0,0,1,82.14,137.182Z" transform="translate(-73.818 -121.499)" fill="#fefefe"/></g><g transform="translate(32.732 6.608)"><g transform="translate(0)"><path d="M91.928,137.706a.48.48,0,1,0,.141.34A.484.484,0,0,0,91.928,137.706Z" transform="translate(-91.108 -137.565)" fill="#fefefe"/></g></g></g></svg>