<svg xmlns="http://www.w3.org/2000/svg" width="49.307" height="49.308" viewBox="0 0 49.307 49.308">
    <defs>
        <style>
            .prefix__cls-1{fill:#7cbe49}
        </style>
    </defs>
    <g id="prefix__money" transform="translate(-.007)">
        <g id="prefix__Group_3503" data-name="Group 3503" transform="translate(6.904 43.222)">
            <g id="prefix__Group_3502" data-name="Group 3502">
                <path id="prefix__Path_6415" d="M69.734 452.3a1.014 1.014 0 1 0 .3.717 1.021 1.021 0 0 0-.3-.717z" class="prefix__cls-1" data-name="Path 6415" transform="translate(-68.003 -452.001)"/>
            </g>
        </g>
        <g id="prefix__Group_3505" data-name="Group 3505" transform="translate(43.274 17.298)">
            <g id="prefix__Group_3504" data-name="Group 3504">
                <path id="prefix__Path_6416" d="M454.186 180.305a1.011 1.011 0 1 0 .3.717 1.02 1.02 0 0 0-.3-.717z" class="prefix__cls-1" data-name="Path 6416" transform="translate(-452.454 -180.008)"/>
            </g>
        </g>
        <g id="prefix__Group_3507" data-name="Group 3507" transform="translate(.007)">
            <g id="prefix__Group_3506" data-name="Group 3506">
                <path id="prefix__Path_6417" d="M49.032.282A.964.964 0 0 0 48.35 0H24.66a.963.963 0 0 0-.96.964v2.754l-9.131 2.446a.963.963 0 0 0-.681 1.179L18.619 25l-4.093 4.093a2.888 2.888 0 0 0-2.385-1.261H2.9a2.892 2.892 0 0 0-2.893 2.89v15.7A2.892 2.892 0 0 0 2.9 49.308h9.245a2.894 2.894 0 0 0 2.8-2.194l1.145 1a4.852 4.852 0 0 0 3.189 1.2h29.072a.963.963 0 0 0 .963-.963V.963a.964.964 0 0 0-.282-.681zM13.1 46.419a.964.964 0 0 1-.963.963H2.9a.964.964 0 0 1-.963-.963v-15.7a.964.964 0 0 1 .963-.963h3.655v11.096a.963.963 0 0 0 1.926 0V29.759h3.659a.964.964 0 0 1 .963.963v15.7zM16 7.776l7.7-2.063v3.568l-.645.173a.963.963 0 0 0-.681 1.179 2.6 2.6 0 0 1-1.834 3.176.963.963 0 0 0-.68 1.181l3.754 13.9h-1.936l-1-3.9a.962.962 0 0 0-.161-.338zm7.7 5.924v8.126l-1.757-6.5A4.512 4.512 0 0 0 23.7 13.7zm13.833 33.682H19.279a2.926 2.926 0 0 1-1.924-.721l-2.325-2.028v-13.32l4.2-4.2.77 2.979a.963.963 0 0 0 .933.724h18.931a1.348 1.348 0 0 1 0 2.7h-9.7a.963.963 0 0 0 0 1.926h12.714a1.348 1.348 0 1 1 0 2.7H30.162a.963.963 0 0 0 0 1.926h10.656a1.348 1.348 0 0 1 0 2.7H30.162a.963.963 0 1 0 0 1.926h7.37a1.348 1.348 0 1 1 0 2.7zm9.855 0h-6.873a3.263 3.263 0 0 0 0-2.7h.3a3.272 3.272 0 0 0 2.927-4.74 3.271 3.271 0 0 0 1.762-5.108V22.632a.963.963 0 0 0-1.926 0v10.959a3.275 3.275 0 0 0-.7-.077h-.032a3.272 3.272 0 0 0-2.983-4.623h-1.547a4.609 4.609 0 1 0-3.621 0H29.43V10.58a4.533 4.533 0 0 0 3.453-3.453h7.244a4.533 4.533 0 0 0 3.453 3.453v2.994a.963.963 0 1 0 1.926 0V9.72a.963.963 0 0 0-.963-.963 2.6 2.6 0 0 1-2.593-2.593.963.963 0 0 0-.963-.963h-8.964a.963.963 0 0 0-.963.963 2.6 2.6 0 0 1-2.593 2.593.963.963 0 0 0-.963.963v19.172h-1.881V1.927h21.765zM36.505 27.337a2.683 2.683 0 1 1 2.683-2.683 2.686 2.686 0 0 1-2.683 2.683z" class="prefix__cls-1" data-name="Path 6417" transform="translate(-.007)"/>
            </g>
        </g>
    </g>
</svg>
