<svg xmlns="http://www.w3.org/2000/svg" width="55.307" height="54.253" viewBox="0 0 55.307 54.253">
    <defs>
        <style>
            .prefix__cls-1{fill:#7cbe49}
        </style>
    </defs>
    <g id="prefix__guarantee_1_" data-name="guarantee (1)" transform="translate(-.382 -1)">
        <path id="prefix__Path_6418" d="M30.987 32.2l-.619-.615-.616.616c-.041.04-4.124 4.053-9.744 3.184L19 35.233v5.462c0 11 10.987 14.72 11.1 14.755l.272.089.272-.089c.111-.036 11.1-3.753 11.1-14.755v-5.462l-1.008.156c-5.593.862-9.708-3.145-9.749-3.189zm9 8.491c0 8.914-7.983 12.379-9.617 12.994-1.583-.612-9.624-4.16-9.624-12.994V37.23a13.937 13.937 0 0 0 9.621-3.239 13.967 13.967 0 0 0 9.621 3.239z" class="prefix__cls-1" data-name="Path 6418" transform="translate(-2.335 -3.836)"/>
        <path id="prefix__Path_6419" d="M29.41 48.467l-2.88-2.88-1.237 1.237 4.117 4.116 8.49-8.49-1.237-1.237z" class="prefix__cls-1" data-name="Path 6419" transform="translate(-3.124 -5.043)"/>
        <path id="prefix__Path_6420" d="M55.689 41.232h-7.538v-1.749a1.751 1.751 0 0 0-1.751-1.75h-3.523c.011-.275.026-.547.026-.829v-.92h5.248a1.751 1.751 0 0 0 1.749-1.749V2.749A1.751 1.751 0 0 0 48.151 1H7.919A1.751 1.751 0 0 0 6.17 2.749v31.486a1.751 1.751 0 0 0 1.749 1.749h5.248v.92c0 .283.015.554.026.829H9.669a1.751 1.751 0 0 0-1.749 1.749v1.749H.382L2.569 45.6.382 49.978h11.91a1.751 1.751 0 0 0 1.749-1.749V46.48h1.749v-.04c4.187 6.7 11.925 8.733 12.032 8.759l.213.053.213-.054c.107-.026 7.846-2.056 12.032-8.759v.04h1.749v1.749a1.751 1.751 0 0 0 1.749 1.749h11.91L53.5 45.6zM21.913 2.749h12.245v7.509l-2.624-2.623-3.5 3.5-3.5-3.5-2.624 2.624zM7.919 34.235V2.749h12.245v11.732l4.373-4.373 3.5 3.5 3.5-3.5 4.373 4.373V2.749h12.241v31.486H42.9v-7.188l-1.209.5c-7.185 2.968-12.768-3.245-13-3.51l-.659-.749-.656.75c-.057.066-5.793 6.487-13 3.509l-1.21-.5v7.188zm4.373 13.994h-9.08L4.524 45.6l-1.312-2.619h4.707v1.749a1.751 1.751 0 0 0 1.75 1.75h2.624zm-2.624-3.5v-5.246h3.66a17.327 17.327 0 0 0 1.525 5.248zm18.37 8.714c-1.7-.5-13.123-4.338-13.123-16.54v-7.31c6.278 1.88 11.364-2.106 13.119-3.743 1.754 1.637 6.839 5.621 13.119 3.743V36.9c.001 12.321-11.332 16.036-13.114 16.544zm14.7-13.961H46.4v5.248h-5.184a17.351 17.351 0 0 0 1.526-5.247zm10.117 8.746h-9.08V46.48H46.4a1.751 1.751 0 0 0 1.749-1.749v-1.75h4.707l-1.31 2.619z" class="prefix__cls-1" data-name="Path 6420"/>
    </g>
</svg>
