<svg xmlns="http://www.w3.org/2000/svg" id="prefix__shipped" width="67.573" height="42.745" viewBox="0 0 67.573 42.745">
    <defs>
        <style>
            .prefix__cls-1{fill:#7cbe49}
        </style>
    </defs>
    <g id="prefix__Group_3491" data-name="Group 3491">
        <g id="prefix__Group_3490" data-name="Group 3490">
            <path id="prefix__Path_6406" d="M4.73 112.183l1.75-7a1.058 1.058 0 0 1-.837-1.035v-1.128a4.449 4.449 0 0 1 4.444-4.444h7.97v-2.327a2.189 2.189 0 0 1 2.187-2.187h40.628a2.189 2.189 0 0 1 2.187 2.187v19.186a1.058 1.058 0 1 1-2.116 0V96.249a.07.07 0 0 0-.07-.07H20.244a.07.07 0 0 0-.07.07v19.186a1.058 1.058 0 1 1-2.116 0v-1.2H5.57a3.462 3.462 0 0 0-3.288 2.4h3.29a1.058 1.058 0 0 1 1.058 1.058v2.257a3.319 3.319 0 0 1-3.315 3.315h-1.2v4.655h2.768a6.7 6.7 0 0 1 12.665 0h.509v-7.971a1.058 1.058 0 0 1 2.116 0v7.97h21.952a6.7 6.7 0 0 1 12.665 0h6.082a.07.07 0 0 0 .07-.07v-2.328h-4.584a1.058 1.058 0 0 1 0-2.116h10.157a1.058 1.058 0 0 1 0 2.116h-3.456v2.328a2.189 2.189 0 0 1-2.187 2.187h-5.715v.07a6.7 6.7 0 1 1-13.4 0v-.07H17.914v.07a6.7 6.7 0 1 1-13.4 0v-.07H1.058A1.058 1.058 0 0 1 0 128.977v-11.285a5.581 5.581 0 0 1 4.73-5.509zm13.327-11.49h-7.97a2.33 2.33 0 0 0-2.328 2.328v.07h10.3zm0 11.427v-6.913h-9.4l-1.728 6.913h11.13zm30.4 22.572a4.585 4.585 0 1 0-4.585-4.585 4.59 4.59 0 0 0 4.586 4.584zm-37.243 0a4.585 4.585 0 1 0-4.585-4.585 4.59 4.59 0 0 0 4.586 4.584zm-9.1-13.543h1.2a1.2 1.2 0 0 0 1.2-1.2v-1.2h-2.4v2.4z" class="prefix__cls-1" data-name="Path 6406" transform="translate(0 -94.062)"/>
        </g>
    </g>
    <g id="prefix__Group_3493" data-name="Group 3493" transform="translate(46.271 33.857)">
        <g id="prefix__Group_3492" data-name="Group 3492">
            <path id="prefix__Path_6407" d="M130.454 350.6a2.187 2.187 0 1 1-2.187 2.187 2.189 2.189 0 0 1 2.187-2.187z" class="prefix__cls-1" data-name="Path 6407" transform="translate(-128.267 -350.597)"/>
        </g>
    </g>
    <g id="prefix__Group_3495" data-name="Group 3495" transform="translate(9.028 33.857)">
        <g id="prefix__Group_3494" data-name="Group 3494">
            <path id="prefix__Path_6408" d="M412.642 350.6a2.187 2.187 0 1 1-2.187 2.187 2.189 2.189 0 0 1 2.187-2.187z" class="prefix__cls-1" data-name="Path 6408" transform="translate(-410.455 -350.597)"/>
        </g>
    </g>
    <g id="prefix__Group_3497" data-name="Group 3497" transform="translate(22.571 29.343)">
        <g id="prefix__Group_3496" data-name="Group 3496">
            <path id="prefix__Path_6409" d="M206.285 316.393h15.8a1.058 1.058 0 1 1 0 2.116h-15.8a1.058 1.058 0 0 1 0-2.116z" class="prefix__cls-1" data-name="Path 6409" transform="translate(-205.227 -316.393)"/>
        </g>
    </g>
    <g id="prefix__Group_3499" data-name="Group 3499" transform="translate(49.657 24.829)">
        <g id="prefix__Group_3498" data-name="Group 3498">
            <path id="prefix__Path_6410" d="M18.16 282.188H31.7a1.058 1.058 0 1 1 0 2.116H18.16a1.058 1.058 0 1 1 0-2.116z" class="prefix__cls-1" data-name="Path 6410" transform="translate(-17.102 -282.188)"/>
        </g>
    </g>
</svg>
