<svg xmlns="http://www.w3.org/2000/svg" width="67.573" height="42.745" viewBox="0 0 67.573 42.745">
    <defs>
        <style>
            .prefix__cls-1{fill:#7cbe49}
        </style>
    </defs>
    <g id="prefix__shipped" transform="translate(0 -94.062)">
        <g id="prefix__Group_3491" data-name="Group 3491" transform="translate(0 94.062)">
            <g id="prefix__Group_3490" data-name="Group 3490">
                <path id="prefix__Path_6406" d="M62.843 112.183l-1.75-7a1.058 1.058 0 0 0 .837-1.035v-1.128a4.449 4.449 0 0 0-4.444-4.444h-7.97v-2.327a2.189 2.189 0 0 0-2.187-2.187H6.7a2.189 2.189 0 0 0-2.187 2.187v19.186a1.058 1.058 0 1 0 2.116 0V96.249a.07.07 0 0 1 .07-.07H47.33a.07.07 0 0 1 .07.07v19.186a1.058 1.058 0 1 0 2.116 0v-1.2H62a3.462 3.462 0 0 1 3.288 2.4H62a1.058 1.058 0 0 0-1.058 1.058v2.257a3.319 3.319 0 0 0 3.315 3.315h1.2v4.655h-2.766a6.7 6.7 0 0 0-12.665 0h-.509v-7.971a1.058 1.058 0 0 0-2.116 0v7.97H25.448a6.7 6.7 0 0 0-12.665 0H6.7a.07.07 0 0 1-.07-.07v-2.328h4.585a1.058 1.058 0 1 0 0-2.116H1.058a1.058 1.058 0 1 0 0 2.116h3.456v2.328a2.189 2.189 0 0 0 2.186 2.186h5.715v.07a6.7 6.7 0 1 0 13.4 0v-.07h23.844v.07a6.7 6.7 0 1 0 13.4 0v-.07h3.458a1.058 1.058 0 0 0 1.058-1.058v-11.285a5.581 5.581 0 0 0-4.732-5.509zm-13.327-11.49h7.971a2.33 2.33 0 0 1 2.328 2.328v.07h-10.3zm0 11.427v-6.913h9.4l1.728 6.913H49.516zm-30.4 22.572a4.585 4.585 0 1 1 4.585-4.585 4.59 4.59 0 0 1-4.586 4.584zm37.243 0a4.585 4.585 0 1 1 4.585-4.585 4.59 4.59 0 0 1-4.586 4.584zm9.1-13.543h-1.2a1.2 1.2 0 0 1-1.2-1.2v-1.2h2.4v2.4z" class="prefix__cls-1" data-name="Path 6406" transform="translate(0 -94.062)"/>
            </g>
        </g>
        <g id="prefix__Group_3493" data-name="Group 3493" transform="translate(16.929 127.919)">
            <g id="prefix__Group_3492" data-name="Group 3492">
                <path id="prefix__Path_6407" d="M130.454 350.6a2.187 2.187 0 1 0 2.187 2.187 2.189 2.189 0 0 0-2.187-2.187z" class="prefix__cls-1" data-name="Path 6407" transform="translate(-128.267 -350.597)"/>
            </g>
        </g>
        <g id="prefix__Group_3495" data-name="Group 3495" transform="translate(54.172 127.919)">
            <g id="prefix__Group_3494" data-name="Group 3494">
                <path id="prefix__Path_6408" d="M412.642 350.6a2.187 2.187 0 1 0 2.187 2.187 2.189 2.189 0 0 0-2.187-2.187z" class="prefix__cls-1" data-name="Path 6408" transform="translate(-410.455 -350.597)"/>
            </g>
        </g>
        <g id="prefix__Group_3497" data-name="Group 3497" transform="translate(27.086 123.405)">
            <g id="prefix__Group_3496" data-name="Group 3496">
                <path id="prefix__Path_6409" d="M222.085 316.393h-15.8a1.058 1.058 0 1 0 0 2.116h15.8a1.058 1.058 0 1 0 0-2.116z" class="prefix__cls-1" data-name="Path 6409" transform="translate(-205.227 -316.393)"/>
            </g>
        </g>
        <g id="prefix__Group_3499" data-name="Group 3499" transform="translate(2.257 118.891)">
            <g id="prefix__Group_3498" data-name="Group 3498">
                <path id="prefix__Path_6410" d="M31.7 282.188H18.16a1.058 1.058 0 1 0 0 2.116H31.7a1.058 1.058 0 1 0 0-2.116z" class="prefix__cls-1" data-name="Path 6410" transform="translate(-17.102 -282.188)"/>
            </g>
        </g>
        <g id="prefix__Group_3501" data-name="Group 3501" transform="translate(19.186 104.219)">
            <g id="prefix__Group_3500" data-name="Group 3500">
                <path id="prefix__Path_6411" d="M162.976 171.332a1.058 1.058 0 0 0-1.5 0l-9.409 9.409-4.895-4.895a1.058 1.058 0 1 0-1.5 1.5l5.643 5.643a1.058 1.058 0 0 0 1.5 0l10.157-10.157a1.058 1.058 0 0 0 .004-1.5z" class="prefix__cls-1" data-name="Path 6411" transform="translate(-145.37 -171.023)"/>
            </g>
        </g>
    </g>
</svg>
